<svg width="581" height="330" viewBox="0 0 581 330" fill="none" xmlns="http://www.w3.org/2000/svg">
<path d="M364 154.5C364 216.632 313.632 267 251.5 267C189.368 267 139 216.632 139 154.5C139 92.368 189.368 42 251.5 42C313.632 42 364 92.368 364 154.5Z" fill="#FFBF28"/>
<circle cx="421.5" cy="112.5" r="112.5" fill="#04BFBF"/>
<g filter="url(#filter0_b_44_214)">
<rect x="279" y="3" width="210" height="132" rx="10" fill="white" fill-opacity="0.15"/>
<path d="M313.7 49.62V40.38H316.28V49.62H313.7ZM310.24 46.22V43.78H319.76V46.22H310.24ZM326.513 52.24C325.539 52.24 324.573 52.1133 323.613 51.86C322.666 51.5933 321.853 51.22 321.173 50.74L322.453 48.26C322.986 48.6467 323.599 48.9533 324.293 49.18C324.999 49.4067 325.713 49.52 326.433 49.52C327.246 49.52 327.886 49.36 328.353 49.04C328.819 48.72 329.053 48.2733 329.053 47.7C329.053 47.34 328.959 47.02 328.773 46.74C328.586 46.46 328.253 46.2467 327.773 46.1C327.306 45.9533 326.646 45.88 325.793 45.88H322.213L322.933 38H331.473V40.6H324.093L325.773 39.12L325.273 44.74L323.593 43.26H326.553C327.939 43.26 329.053 43.4533 329.893 43.84C330.746 44.2133 331.366 44.7267 331.753 45.38C332.139 46.0333 332.333 46.7733 332.333 47.6C332.333 48.4267 332.126 49.1933 331.713 49.9C331.299 50.5933 330.659 51.16 329.793 51.6C328.939 52.0267 327.846 52.24 326.513 52.24ZM315.64 76.16C314.48 76.16 313.447 75.9267 312.54 75.46C311.633 74.98 310.92 74.32 310.4 73.48C309.893 72.64 309.64 71.6867 309.64 70.62C309.64 69.54 309.893 68.5867 310.4 67.76C310.92 66.92 311.633 66.2667 312.54 65.8C313.447 65.32 314.48 65.08 315.64 65.08C316.773 65.08 317.76 65.32 318.6 65.8C319.44 66.2667 320.06 66.94 320.46 67.82L318.04 69.12C317.76 68.6133 317.407 68.24 316.98 68C316.567 67.76 316.113 67.64 315.62 67.64C315.087 67.64 314.607 67.76 314.18 68C313.753 68.24 313.413 68.58 313.16 69.02C312.92 69.46 312.8 69.9933 312.8 70.62C312.8 71.2467 312.92 71.78 313.16 72.22C313.413 72.66 313.753 73 314.18 73.24C314.607 73.48 315.087 73.6 315.62 73.6C316.113 73.6 316.567 73.4867 316.98 73.26C317.407 73.02 317.76 72.64 318.04 72.12L320.46 73.44C320.06 74.3067 319.44 74.98 318.6 75.46C317.76 75.9267 316.773 76.16 315.64 76.16ZM326.796 76.16C325.903 76.16 325.103 75.9867 324.396 75.64C323.703 75.2933 323.163 74.7667 322.776 74.06C322.39 73.34 322.196 72.4267 322.196 71.32V65.24H325.316V70.86C325.316 71.7533 325.503 72.4133 325.876 72.84C326.263 73.2533 326.803 73.46 327.496 73.46C327.976 73.46 328.403 73.36 328.776 73.16C329.15 72.9467 329.443 72.6267 329.656 72.2C329.87 71.76 329.976 71.2133 329.976 70.56V65.24H333.096V76H330.136V73.04L330.676 73.9C330.316 74.6467 329.783 75.2133 329.076 75.6C328.383 75.9733 327.623 76.16 326.796 76.16ZM335.987 76V65.24H338.967V68.28L338.547 67.4C338.867 66.64 339.38 66.0667 340.087 65.68C340.794 65.28 341.654 65.08 342.667 65.08V67.96C342.534 67.9467 342.414 67.94 342.307 67.94C342.2 67.9267 342.087 67.92 341.967 67.92C341.114 67.92 340.42 68.1667 339.887 68.66C339.367 69.14 339.107 69.8933 339.107 70.92V76H335.987ZM348.22 76.16C347.3 76.16 346.413 76.0533 345.56 75.84C344.72 75.6133 344.053 75.3333 343.56 75L344.6 72.76C345.093 73.0667 345.673 73.32 346.34 73.52C347.02 73.7067 347.687 73.8 348.34 73.8C349.06 73.8 349.567 73.7133 349.86 73.54C350.167 73.3667 350.32 73.1267 350.32 72.82C350.32 72.5667 350.2 72.38 349.96 72.26C349.733 72.1267 349.427 72.0267 349.04 71.96C348.653 71.8933 348.227 71.8267 347.76 71.76C347.307 71.6933 346.847 71.6067 346.38 71.5C345.913 71.38 345.487 71.2067 345.1 70.98C344.713 70.7533 344.4 70.4467 344.16 70.06C343.933 69.6733 343.82 69.1733 343.82 68.56C343.82 67.88 344.013 67.28 344.4 66.76C344.8 66.24 345.373 65.8333 346.12 65.54C346.867 65.2333 347.76 65.08 348.8 65.08C349.533 65.08 350.28 65.16 351.04 65.32C351.8 65.48 352.433 65.7133 352.94 66.02L351.9 68.24C351.38 67.9333 350.853 67.7267 350.32 67.62C349.8 67.5 349.293 67.44 348.8 67.44C348.107 67.44 347.6 67.5333 347.28 67.72C346.96 67.9067 346.8 68.1467 346.8 68.44C346.8 68.7067 346.913 68.9067 347.14 69.04C347.38 69.1733 347.693 69.28 348.08 69.36C348.467 69.44 348.887 69.5133 349.34 69.58C349.807 69.6333 350.273 69.72 350.74 69.84C351.207 69.96 351.627 70.1333 352 70.36C352.387 70.5733 352.7 70.8733 352.94 71.26C353.18 71.6333 353.3 72.1267 353.3 72.74C353.3 73.4067 353.1 74 352.7 74.52C352.3 75.0267 351.72 75.4267 350.96 75.72C350.213 76.0133 349.3 76.16 348.22 76.16ZM360.345 76.16C359.198 76.16 358.178 75.92 357.285 75.44C356.405 74.96 355.705 74.3067 355.185 73.48C354.678 72.64 354.425 71.6867 354.425 70.62C354.425 69.54 354.678 68.5867 355.185 67.76C355.705 66.92 356.405 66.2667 357.285 65.8C358.178 65.32 359.198 65.08 360.345 65.08C361.478 65.08 362.492 65.32 363.385 65.8C364.278 66.2667 364.978 66.9133 365.485 67.74C365.992 68.5667 366.245 69.5267 366.245 70.62C366.245 71.6867 365.992 72.64 365.485 73.48C364.978 74.3067 364.278 74.96 363.385 75.44C362.492 75.92 361.478 76.16 360.345 76.16ZM360.345 73.6C360.865 73.6 361.332 73.48 361.745 73.24C362.158 73 362.485 72.66 362.725 72.22C362.965 71.7667 363.085 71.2333 363.085 70.62C363.085 69.9933 362.965 69.46 362.725 69.02C362.485 68.58 362.158 68.24 361.745 68C361.332 67.76 360.865 67.64 360.345 67.64C359.825 67.64 359.358 67.76 358.945 68C358.532 68.24 358.198 68.58 357.945 69.02C357.705 69.46 357.585 69.9933 357.585 70.62C357.585 71.2333 357.705 71.7667 357.945 72.22C358.198 72.66 358.532 73 358.945 73.24C359.358 73.48 359.825 73.6 360.345 73.6ZM371.951 76.16C371.031 76.16 370.144 76.0533 369.291 75.84C368.451 75.6133 367.784 75.3333 367.291 75L368.331 72.76C368.824 73.0667 369.404 73.32 370.071 73.52C370.751 73.7067 371.417 73.8 372.071 73.8C372.791 73.8 373.297 73.7133 373.591 73.54C373.897 73.3667 374.051 73.1267 374.051 72.82C374.051 72.5667 373.931 72.38 373.691 72.26C373.464 72.1267 373.157 72.0267 372.771 71.96C372.384 71.8933 371.957 71.8267 371.491 71.76C371.037 71.6933 370.577 71.6067 370.111 71.5C369.644 71.38 369.217 71.2067 368.831 70.98C368.444 70.7533 368.131 70.4467 367.891 70.06C367.664 69.6733 367.551 69.1733 367.551 68.56C367.551 67.88 367.744 67.28 368.131 66.76C368.531 66.24 369.104 65.8333 369.851 65.54C370.597 65.2333 371.491 65.08 372.531 65.08C373.264 65.08 374.011 65.16 374.771 65.32C375.531 65.48 376.164 65.7133 376.671 66.02L375.631 68.24C375.111 67.9333 374.584 67.7267 374.051 67.62C373.531 67.5 373.024 67.44 372.531 67.44C371.837 67.44 371.331 67.5333 371.011 67.72C370.691 67.9067 370.531 68.1467 370.531 68.44C370.531 68.7067 370.644 68.9067 370.871 69.04C371.111 69.1733 371.424 69.28 371.811 69.36C372.197 69.44 372.617 69.5133 373.071 69.58C373.537 69.6333 374.004 69.72 374.471 69.84C374.937 69.96 375.357 70.1333 375.731 70.36C376.117 70.5733 376.431 70.8733 376.671 71.26C376.911 71.6333 377.031 72.1267 377.031 72.74C377.031 73.4067 376.831 74 376.431 74.52C376.031 75.0267 375.451 75.4267 374.691 75.72C373.944 76.0133 373.031 76.16 371.951 76.16ZM315.06 100.16C314.047 100.16 313.133 99.9333 312.32 99.48C311.507 99.0133 310.86 98.3667 310.38 97.54C309.913 96.7133 309.68 95.74 309.68 94.62C309.68 93.4867 309.913 92.5067 310.38 91.68C310.86 90.8533 311.507 90.2133 312.32 89.76C313.133 89.3067 314.047 89.08 315.06 89.08C315.967 89.08 316.76 89.28 317.44 89.68C318.12 90.08 318.647 90.6867 319.02 91.5C319.393 92.3133 319.58 93.3533 319.58 94.62C319.58 95.8733 319.4 96.9133 319.04 97.74C318.68 98.5533 318.16 99.16 317.48 99.56C316.813 99.96 316.007 100.16 315.06 100.16ZM315.6 97.6C316.107 97.6 316.567 97.48 316.98 97.24C317.393 97 317.72 96.66 317.96 96.22C318.213 95.7667 318.34 95.2333 318.34 94.62C318.34 93.9933 318.213 93.46 317.96 93.02C317.72 92.58 317.393 92.24 316.98 92C316.567 91.76 316.107 91.64 315.6 91.64C315.08 91.64 314.613 91.76 314.2 92C313.787 92.24 313.453 92.58 313.2 93.02C312.96 93.46 312.84 93.9933 312.84 94.62C312.84 95.2333 312.96 95.7667 313.2 96.22C313.453 96.66 313.787 97 314.2 97.24C314.613 97.48 315.08 97.6 315.6 97.6ZM318.42 100V97.8L318.48 94.6L318.28 91.42V85.16H321.4V100H318.42ZM329.628 100.16C328.401 100.16 327.321 99.92 326.388 99.44C325.468 98.96 324.754 98.3067 324.248 97.48C323.741 96.64 323.488 95.6867 323.488 94.62C323.488 93.54 323.734 92.5867 324.228 91.76C324.734 90.92 325.421 90.2667 326.288 89.8C327.154 89.32 328.134 89.08 329.228 89.08C330.281 89.08 331.228 89.3067 332.068 89.76C332.921 90.2 333.594 90.84 334.088 91.68C334.581 92.5067 334.828 93.5 334.828 94.66C334.828 94.78 334.821 94.92 334.808 95.08C334.794 95.2267 334.781 95.3667 334.768 95.5H326.028V93.68H333.128L331.928 94.22C331.928 93.66 331.814 93.1733 331.588 92.76C331.361 92.3467 331.048 92.0267 330.648 91.8C330.248 91.56 329.781 91.44 329.248 91.44C328.714 91.44 328.241 91.56 327.828 91.8C327.428 92.0267 327.114 92.3533 326.888 92.78C326.661 93.1933 326.548 93.6867 326.548 94.26V94.74C326.548 95.3267 326.674 95.8467 326.928 96.3C327.194 96.74 327.561 97.08 328.028 97.32C328.508 97.5467 329.068 97.66 329.708 97.66C330.281 97.66 330.781 97.5733 331.208 97.4C331.648 97.2267 332.048 96.9667 332.408 96.62L334.068 98.42C333.574 98.98 332.954 99.4133 332.208 99.72C331.461 100.013 330.601 100.16 329.628 100.16ZM340.525 100.16C339.605 100.16 338.718 100.053 337.865 99.84C337.025 99.6133 336.358 99.3333 335.865 99L336.905 96.76C337.398 97.0667 337.978 97.32 338.645 97.52C339.325 97.7067 339.992 97.8 340.645 97.8C341.365 97.8 341.872 97.7133 342.165 97.54C342.472 97.3667 342.625 97.1267 342.625 96.82C342.625 96.5667 342.505 96.38 342.265 96.26C342.038 96.1267 341.732 96.0267 341.345 95.96C340.958 95.8933 340.532 95.8267 340.065 95.76C339.612 95.6933 339.152 95.6067 338.685 95.5C338.218 95.38 337.792 95.2067 337.405 94.98C337.018 94.7533 336.705 94.4467 336.465 94.06C336.238 93.6733 336.125 93.1733 336.125 92.56C336.125 91.88 336.318 91.28 336.705 90.76C337.105 90.24 337.678 89.8333 338.425 89.54C339.172 89.2333 340.065 89.08 341.105 89.08C341.838 89.08 342.585 89.16 343.345 89.32C344.105 89.48 344.738 89.7133 345.245 90.02L344.205 92.24C343.685 91.9333 343.158 91.7267 342.625 91.62C342.105 91.5 341.598 91.44 341.105 91.44C340.412 91.44 339.905 91.5333 339.585 91.72C339.265 91.9067 339.105 92.1467 339.105 92.44C339.105 92.7067 339.218 92.9067 339.445 93.04C339.685 93.1733 339.998 93.28 340.385 93.36C340.772 93.44 341.192 93.5133 341.645 93.58C342.112 93.6333 342.578 93.72 343.045 93.84C343.512 93.96 343.932 94.1333 344.305 94.36C344.692 94.5733 345.005 94.8733 345.245 95.26C345.485 95.6333 345.605 96.1267 345.605 96.74C345.605 97.4067 345.405 98 345.005 98.52C344.605 99.0267 344.025 99.4267 343.265 99.72C342.518 100.013 341.605 100.16 340.525 100.16ZM352.87 100.16C351.643 100.16 350.563 99.92 349.63 99.44C348.71 98.96 347.997 98.3067 347.49 97.48C346.983 96.64 346.73 95.6867 346.73 94.62C346.73 93.54 346.977 92.5867 347.47 91.76C347.977 90.92 348.663 90.2667 349.53 89.8C350.397 89.32 351.377 89.08 352.47 89.08C353.523 89.08 354.47 89.3067 355.31 89.76C356.163 90.2 356.837 90.84 357.33 91.68C357.823 92.5067 358.07 93.5 358.07 94.66C358.07 94.78 358.063 94.92 358.05 95.08C358.037 95.2267 358.023 95.3667 358.01 95.5H349.27V93.68H356.37L355.17 94.22C355.17 93.66 355.057 93.1733 354.83 92.76C354.603 92.3467 354.29 92.0267 353.89 91.8C353.49 91.56 353.023 91.44 352.49 91.44C351.957 91.44 351.483 91.56 351.07 91.8C350.67 92.0267 350.357 92.3533 350.13 92.78C349.903 93.1933 349.79 93.6867 349.79 94.26V94.74C349.79 95.3267 349.917 95.8467 350.17 96.3C350.437 96.74 350.803 97.08 351.27 97.32C351.75 97.5467 352.31 97.66 352.95 97.66C353.523 97.66 354.023 97.5733 354.45 97.4C354.89 97.2267 355.29 96.9667 355.65 96.62L357.31 98.42C356.817 98.98 356.197 99.4133 355.45 99.72C354.703 100.013 353.843 100.16 352.87 100.16ZM366.687 89.08C367.54 89.08 368.3 89.2533 368.967 89.6C369.647 89.9333 370.18 90.4533 370.567 91.16C370.954 91.8533 371.147 92.7467 371.147 93.84V100H368.027V94.32C368.027 93.4533 367.834 92.8133 367.447 92.4C367.074 91.9867 366.54 91.78 365.847 91.78C365.354 91.78 364.907 91.8867 364.507 92.1C364.12 92.3 363.814 92.6133 363.587 93.04C363.374 93.4667 363.267 94.0133 363.267 94.68V100H360.147V89.24H363.127V92.22L362.567 91.32C362.954 90.6 363.507 90.0467 364.227 89.66C364.947 89.2733 365.767 89.08 366.687 89.08ZM376.7 100L372.18 89.24H375.4L379.16 98.5H377.56L381.46 89.24H384.46L379.92 100H376.7ZM390.56 100.16C389.413 100.16 388.393 99.92 387.5 99.44C386.62 98.96 385.92 98.3067 385.4 97.48C384.893 96.64 384.64 95.6867 384.64 94.62C384.64 93.54 384.893 92.5867 385.4 91.76C385.92 90.92 386.62 90.2667 387.5 89.8C388.393 89.32 389.413 89.08 390.56 89.08C391.693 89.08 392.707 89.32 393.6 89.8C394.493 90.2667 395.193 90.9133 395.7 91.74C396.207 92.5667 396.46 93.5267 396.46 94.62C396.46 95.6867 396.207 96.64 395.7 97.48C395.193 98.3067 394.493 98.96 393.6 99.44C392.707 99.92 391.693 100.16 390.56 100.16ZM390.56 97.6C391.08 97.6 391.547 97.48 391.96 97.24C392.373 97 392.7 96.66 392.94 96.22C393.18 95.7667 393.3 95.2333 393.3 94.62C393.3 93.9933 393.18 93.46 392.94 93.02C392.7 92.58 392.373 92.24 391.96 92C391.547 91.76 391.08 91.64 390.56 91.64C390.04 91.64 389.573 91.76 389.16 92C388.747 92.24 388.413 92.58 388.16 93.02C387.92 93.46 387.8 93.9933 387.8 94.62C387.8 95.2333 387.92 95.7667 388.16 96.22C388.413 96.66 388.747 97 389.16 97.24C389.573 97.48 390.04 97.6 390.56 97.6ZM398.545 100V85.16H401.665V100H398.545ZM407.481 100L402.961 89.24H406.181L409.941 98.5H408.341L412.241 89.24H415.241L410.701 100H407.481ZM416.514 100V89.24H419.634V100H416.514ZM418.074 87.74C417.501 87.74 417.034 87.5733 416.674 87.24C416.314 86.9067 416.134 86.4933 416.134 86C416.134 85.5067 416.314 85.0933 416.674 84.76C417.034 84.4267 417.501 84.26 418.074 84.26C418.648 84.26 419.114 84.42 419.474 84.74C419.834 85.0467 420.014 85.4467 420.014 85.94C420.014 86.46 419.834 86.8933 419.474 87.24C419.128 87.5733 418.661 87.74 418.074 87.74ZM427.15 100.16C426.137 100.16 425.223 99.9333 424.41 99.48C423.597 99.0133 422.95 98.3667 422.47 97.54C422.003 96.7133 421.77 95.74 421.77 94.62C421.77 93.4867 422.003 92.5067 422.47 91.68C422.95 90.8533 423.597 90.2133 424.41 89.76C425.223 89.3067 426.137 89.08 427.15 89.08C428.057 89.08 428.85 89.28 429.53 89.68C430.21 90.08 430.737 90.6867 431.11 91.5C431.483 92.3133 431.67 93.3533 431.67 94.62C431.67 95.8733 431.49 96.9133 431.13 97.74C430.77 98.5533 430.25 99.16 429.57 99.56C428.903 99.96 428.097 100.16 427.15 100.16ZM427.69 97.6C428.197 97.6 428.657 97.48 429.07 97.24C429.483 97 429.81 96.66 430.05 96.22C430.303 95.7667 430.43 95.2333 430.43 94.62C430.43 93.9933 430.303 93.46 430.05 93.02C429.81 92.58 429.483 92.24 429.07 92C428.657 91.76 428.197 91.64 427.69 91.64C427.17 91.64 426.703 91.76 426.29 92C425.877 92.24 425.543 92.58 425.29 93.02C425.05 93.46 424.93 93.9933 424.93 94.62C424.93 95.2333 425.05 95.7667 425.29 96.22C425.543 96.66 425.877 97 426.29 97.24C426.703 97.48 427.17 97.6 427.69 97.6ZM430.51 100V97.8L430.57 94.6L430.37 91.42V85.16H433.49V100H430.51ZM441.498 100.16C440.351 100.16 439.331 99.92 438.438 99.44C437.558 98.96 436.858 98.3067 436.338 97.48C435.831 96.64 435.578 95.6867 435.578 94.62C435.578 93.54 435.831 92.5867 436.338 91.76C436.858 90.92 437.558 90.2667 438.438 89.8C439.331 89.32 440.351 89.08 441.498 89.08C442.631 89.08 443.644 89.32 444.538 89.8C445.431 90.2667 446.131 90.9133 446.638 91.74C447.144 92.5667 447.398 93.5267 447.398 94.62C447.398 95.6867 447.144 96.64 446.638 97.48C446.131 98.3067 445.431 98.96 444.538 99.44C443.644 99.92 442.631 100.16 441.498 100.16ZM441.498 97.6C442.018 97.6 442.484 97.48 442.898 97.24C443.311 97 443.638 96.66 443.878 96.22C444.118 95.7667 444.238 95.2333 444.238 94.62C444.238 93.9933 444.118 93.46 443.878 93.02C443.638 92.58 443.311 92.24 442.898 92C442.484 91.76 442.018 91.64 441.498 91.64C440.978 91.64 440.511 91.76 440.098 92C439.684 92.24 439.351 92.58 439.098 93.02C438.858 93.46 438.738 93.9933 438.738 94.62C438.738 95.2333 438.858 95.7667 439.098 96.22C439.351 96.66 439.684 97 440.098 97.24C440.511 97.48 440.978 97.6 441.498 97.6ZM453.103 100.16C452.183 100.16 451.296 100.053 450.443 99.84C449.603 99.6133 448.936 99.3333 448.443 99L449.483 96.76C449.976 97.0667 450.556 97.32 451.223 97.52C451.903 97.7067 452.57 97.8 453.223 97.8C453.943 97.8 454.45 97.7133 454.743 97.54C455.05 97.3667 455.203 97.1267 455.203 96.82C455.203 96.5667 455.083 96.38 454.843 96.26C454.616 96.1267 454.31 96.0267 453.923 95.96C453.536 95.8933 453.11 95.8267 452.643 95.76C452.19 95.6933 451.73 95.6067 451.263 95.5C450.796 95.38 450.37 95.2067 449.983 94.98C449.596 94.7533 449.283 94.4467 449.043 94.06C448.816 93.6733 448.703 93.1733 448.703 92.56C448.703 91.88 448.896 91.28 449.283 90.76C449.683 90.24 450.256 89.8333 451.003 89.54C451.75 89.2333 452.643 89.08 453.683 89.08C454.416 89.08 455.163 89.16 455.923 89.32C456.683 89.48 457.316 89.7133 457.823 90.02L456.783 92.24C456.263 91.9333 455.736 91.7267 455.203 91.62C454.683 91.5 454.176 91.44 453.683 91.44C452.99 91.44 452.483 91.5333 452.163 91.72C451.843 91.9067 451.683 92.1467 451.683 92.44C451.683 92.7067 451.796 92.9067 452.023 93.04C452.263 93.1733 452.576 93.28 452.963 93.36C453.35 93.44 453.77 93.5133 454.223 93.58C454.69 93.6333 455.156 93.72 455.623 93.84C456.09 93.96 456.51 94.1333 456.883 94.36C457.27 94.5733 457.583 94.8733 457.823 95.26C458.063 95.6333 458.183 96.1267 458.183 96.74C458.183 97.4067 457.983 98 457.583 98.52C457.183 99.0267 456.603 99.4267 455.843 99.72C455.096 100.013 454.183 100.16 453.103 100.16Z" fill="white"/>
<rect x="279.5" y="3.5" width="209" height="131" rx="9.5" stroke="white" stroke-opacity="0.2" style="mix-blend-mode:overlay"/>
</g>
<g filter="url(#filter1_b_44_214)">
<rect x="186" y="198" width="195" height="132" rx="10" fill="white" fill-opacity="0.15"/>
<path d="M220.7 244.62V235.38H223.28V244.62H220.7ZM217.24 241.22V238.78H226.76V241.22H217.24ZM233.513 247.24C232.539 247.24 231.573 247.113 230.613 246.86C229.666 246.593 228.853 246.22 228.173 245.74L229.453 243.26C229.986 243.647 230.599 243.953 231.293 244.18C231.999 244.407 232.713 244.52 233.433 244.52C234.246 244.52 234.886 244.36 235.353 244.04C235.819 243.72 236.053 243.273 236.053 242.7C236.053 242.34 235.959 242.02 235.773 241.74C235.586 241.46 235.253 241.247 234.773 241.1C234.306 240.953 233.646 240.88 232.793 240.88H229.213L229.933 233H238.473V235.6H231.093L232.773 234.12L232.273 239.74L230.593 238.26H233.553C234.939 238.26 236.053 238.453 236.893 238.84C237.746 239.213 238.366 239.727 238.753 240.38C239.139 241.033 239.333 241.773 239.333 242.6C239.333 243.427 239.126 244.193 238.713 244.9C238.299 245.593 237.659 246.16 236.793 246.6C235.939 247.027 234.846 247.24 233.513 247.24ZM246.647 247.24C245.501 247.24 244.474 246.96 243.567 246.4C242.661 245.827 241.947 245 241.427 243.92C240.907 242.84 240.647 241.533 240.647 240C240.647 238.467 240.907 237.16 241.427 236.08C241.947 235 242.661 234.18 243.567 233.62C244.474 233.047 245.501 232.76 246.647 232.76C247.807 232.76 248.834 233.047 249.727 233.62C250.634 234.18 251.347 235 251.867 236.08C252.387 237.16 252.647 238.467 252.647 240C252.647 241.533 252.387 242.84 251.867 243.92C251.347 245 250.634 245.827 249.727 246.4C248.834 246.96 247.807 247.24 246.647 247.24ZM246.647 244.5C247.194 244.5 247.667 244.347 248.067 244.04C248.481 243.733 248.801 243.247 249.027 242.58C249.267 241.913 249.387 241.053 249.387 240C249.387 238.947 249.267 238.087 249.027 237.42C248.801 236.753 248.481 236.267 248.067 235.96C247.667 235.653 247.194 235.5 246.647 235.5C246.114 235.5 245.641 235.653 245.227 235.96C244.827 236.267 244.507 236.753 244.267 237.42C244.041 238.087 243.927 238.947 243.927 240C243.927 241.053 244.041 241.913 244.267 242.58C244.507 243.247 244.827 243.733 245.227 244.04C245.641 244.347 246.114 244.5 246.647 244.5ZM260.221 247.24C259.075 247.24 258.048 246.96 257.141 246.4C256.235 245.827 255.521 245 255.001 243.92C254.481 242.84 254.221 241.533 254.221 240C254.221 238.467 254.481 237.16 255.001 236.08C255.521 235 256.235 234.18 257.141 233.62C258.048 233.047 259.075 232.76 260.221 232.76C261.381 232.76 262.408 233.047 263.301 233.62C264.208 234.18 264.921 235 265.441 236.08C265.961 237.16 266.221 238.467 266.221 240C266.221 241.533 265.961 242.84 265.441 243.92C264.921 245 264.208 245.827 263.301 246.4C262.408 246.96 261.381 247.24 260.221 247.24ZM260.221 244.5C260.768 244.5 261.241 244.347 261.641 244.04C262.055 243.733 262.375 243.247 262.601 242.58C262.841 241.913 262.961 241.053 262.961 240C262.961 238.947 262.841 238.087 262.601 237.42C262.375 236.753 262.055 236.267 261.641 235.96C261.241 235.653 260.768 235.5 260.221 235.5C259.688 235.5 259.215 235.653 258.801 235.96C258.401 236.267 258.081 236.753 257.841 237.42C257.615 238.087 257.501 238.947 257.501 240C257.501 241.053 257.615 241.913 257.841 242.58C258.081 243.247 258.401 243.733 258.801 244.04C259.215 244.347 259.688 244.5 260.221 244.5ZM224.04 271V268.9L223.84 268.44V264.68C223.84 264.013 223.633 263.493 223.22 263.12C222.82 262.747 222.2 262.56 221.36 262.56C220.787 262.56 220.22 262.653 219.66 262.84C219.113 263.013 218.647 263.253 218.26 263.56L217.14 261.38C217.727 260.967 218.433 260.647 219.26 260.42C220.087 260.193 220.927 260.08 221.78 260.08C223.42 260.08 224.693 260.467 225.6 261.24C226.507 262.013 226.96 263.22 226.96 264.86V271H224.04ZM220.76 271.16C219.92 271.16 219.2 271.02 218.6 270.74C218 270.447 217.54 270.053 217.22 269.56C216.9 269.067 216.74 268.513 216.74 267.9C216.74 267.26 216.893 266.7 217.2 266.22C217.52 265.74 218.02 265.367 218.7 265.1C219.38 264.82 220.267 264.68 221.36 264.68H224.22V266.5H221.7C220.967 266.5 220.46 266.62 220.18 266.86C219.913 267.1 219.78 267.4 219.78 267.76C219.78 268.16 219.933 268.48 220.24 268.72C220.56 268.947 220.993 269.06 221.54 269.06C222.06 269.06 222.527 268.94 222.94 268.7C223.353 268.447 223.653 268.08 223.84 267.6L224.32 269.04C224.093 269.733 223.68 270.26 223.08 270.62C222.48 270.98 221.707 271.16 220.76 271.16ZM229.784 271V256.16H232.904V271H229.784ZM240.339 271.16C239.446 271.16 238.646 270.987 237.939 270.64C237.246 270.293 236.706 269.767 236.319 269.06C235.933 268.34 235.739 267.427 235.739 266.32V260.24H238.859V265.86C238.859 266.753 239.046 267.413 239.419 267.84C239.806 268.253 240.346 268.46 241.039 268.46C241.519 268.46 241.946 268.36 242.319 268.16C242.693 267.947 242.986 267.627 243.199 267.2C243.413 266.76 243.519 266.213 243.519 265.56V260.24H246.639V271H243.679V268.04L244.219 268.9C243.859 269.647 243.326 270.213 242.619 270.6C241.926 270.973 241.166 271.16 240.339 271.16ZM256.07 260.08C256.923 260.08 257.683 260.253 258.35 260.6C259.03 260.933 259.563 261.453 259.95 262.16C260.337 262.853 260.53 263.747 260.53 264.84V271H257.41V265.32C257.41 264.453 257.217 263.813 256.83 263.4C256.457 262.987 255.923 262.78 255.23 262.78C254.737 262.78 254.29 262.887 253.89 263.1C253.503 263.3 253.197 263.613 252.97 264.04C252.757 264.467 252.65 265.013 252.65 265.68V271H249.53V260.24H252.51V263.22L251.95 262.32C252.337 261.6 252.89 261.047 253.61 260.66C254.33 260.273 255.15 260.08 256.07 260.08ZM268.556 271.16C267.409 271.16 266.389 270.92 265.496 270.44C264.616 269.96 263.916 269.307 263.396 268.48C262.889 267.64 262.636 266.687 262.636 265.62C262.636 264.54 262.889 263.587 263.396 262.76C263.916 261.92 264.616 261.267 265.496 260.8C266.389 260.32 267.409 260.08 268.556 260.08C269.689 260.08 270.703 260.32 271.596 260.8C272.489 261.267 273.189 261.913 273.696 262.74C274.203 263.567 274.456 264.527 274.456 265.62C274.456 266.687 274.203 267.64 273.696 268.48C273.189 269.307 272.489 269.96 271.596 270.44C270.703 270.92 269.689 271.16 268.556 271.16ZM268.556 268.6C269.076 268.6 269.543 268.48 269.956 268.24C270.369 268 270.696 267.66 270.936 267.22C271.176 266.767 271.296 266.233 271.296 265.62C271.296 264.993 271.176 264.46 270.936 264.02C270.696 263.58 270.369 263.24 269.956 263C269.543 262.76 269.076 262.64 268.556 262.64C268.036 262.64 267.569 262.76 267.156 263C266.743 263.24 266.409 263.58 266.156 264.02C265.916 264.46 265.796 264.993 265.796 265.62C265.796 266.233 265.916 266.767 266.156 267.22C266.409 267.66 266.743 268 267.156 268.24C267.569 268.48 268.036 268.6 268.556 268.6ZM280.162 271.16C279.242 271.16 278.355 271.053 277.502 270.84C276.662 270.613 275.995 270.333 275.502 270L276.542 267.76C277.035 268.067 277.615 268.32 278.282 268.52C278.962 268.707 279.628 268.8 280.282 268.8C281.002 268.8 281.508 268.713 281.802 268.54C282.108 268.367 282.262 268.127 282.262 267.82C282.262 267.567 282.142 267.38 281.902 267.26C281.675 267.127 281.368 267.027 280.982 266.96C280.595 266.893 280.168 266.827 279.702 266.76C279.248 266.693 278.788 266.607 278.322 266.5C277.855 266.38 277.428 266.207 277.042 265.98C276.655 265.753 276.342 265.447 276.102 265.06C275.875 264.673 275.762 264.173 275.762 263.56C275.762 262.88 275.955 262.28 276.342 261.76C276.742 261.24 277.315 260.833 278.062 260.54C278.808 260.233 279.702 260.08 280.742 260.08C281.475 260.08 282.222 260.16 282.982 260.32C283.742 260.48 284.375 260.713 284.882 261.02L283.842 263.24C283.322 262.933 282.795 262.727 282.262 262.62C281.742 262.5 281.235 262.44 280.742 262.44C280.048 262.44 279.542 262.533 279.222 262.72C278.902 262.907 278.742 263.147 278.742 263.44C278.742 263.707 278.855 263.907 279.082 264.04C279.322 264.173 279.635 264.28 280.022 264.36C280.408 264.44 280.828 264.513 281.282 264.58C281.748 264.633 282.215 264.72 282.682 264.84C283.148 264.96 283.568 265.133 283.942 265.36C284.328 265.573 284.642 265.873 284.882 266.26C285.122 266.633 285.242 267.127 285.242 267.74C285.242 268.407 285.042 269 284.642 269.52C284.242 270.027 283.662 270.427 282.902 270.72C282.155 271.013 281.242 271.16 280.162 271.16ZM223.8 295.16C222.853 295.16 222.04 294.96 221.36 294.56C220.68 294.16 220.16 293.553 219.8 292.74C219.44 291.913 219.26 290.873 219.26 289.62C219.26 288.353 219.447 287.313 219.82 286.5C220.207 285.687 220.74 285.08 221.42 284.68C222.1 284.28 222.893 284.08 223.8 284.08C224.813 284.08 225.72 284.307 226.52 284.76C227.333 285.213 227.973 285.853 228.44 286.68C228.92 287.507 229.16 288.487 229.16 289.62C229.16 290.74 228.92 291.713 228.44 292.54C227.973 293.367 227.333 294.013 226.52 294.48C225.72 294.933 224.813 295.16 223.8 295.16ZM217.44 295V280.16H220.56V286.42L220.36 289.6L220.42 292.8V295H217.44ZM223.26 292.6C223.78 292.6 224.24 292.48 224.64 292.24C225.053 292 225.38 291.66 225.62 291.22C225.873 290.767 226 290.233 226 289.62C226 288.993 225.873 288.46 225.62 288.02C225.38 287.58 225.053 287.24 224.64 287C224.24 286.76 223.78 286.64 223.26 286.64C222.74 286.64 222.273 286.76 221.86 287C221.447 287.24 221.12 287.58 220.88 288.02C220.64 288.46 220.52 288.993 220.52 289.62C220.52 290.233 220.64 290.767 220.88 291.22C221.12 291.66 221.447 292 221.86 292.24C222.273 292.48 222.74 292.6 223.26 292.6ZM236.589 295.16C235.362 295.16 234.282 294.92 233.349 294.44C232.429 293.96 231.715 293.307 231.209 292.48C230.702 291.64 230.449 290.687 230.449 289.62C230.449 288.54 230.695 287.587 231.189 286.76C231.695 285.92 232.382 285.267 233.249 284.8C234.115 284.32 235.095 284.08 236.189 284.08C237.242 284.08 238.189 284.307 239.029 284.76C239.882 285.2 240.555 285.84 241.049 286.68C241.542 287.507 241.789 288.5 241.789 289.66C241.789 289.78 241.782 289.92 241.769 290.08C241.755 290.227 241.742 290.367 241.729 290.5H232.989V288.68H240.089L238.889 289.22C238.889 288.66 238.775 288.173 238.549 287.76C238.322 287.347 238.009 287.027 237.609 286.8C237.209 286.56 236.742 286.44 236.209 286.44C235.675 286.44 235.202 286.56 234.789 286.8C234.389 287.027 234.075 287.353 233.849 287.78C233.622 288.193 233.509 288.687 233.509 289.26V289.74C233.509 290.327 233.635 290.847 233.889 291.3C234.155 291.74 234.522 292.08 234.989 292.32C235.469 292.547 236.029 292.66 236.669 292.66C237.242 292.66 237.742 292.573 238.169 292.4C238.609 292.227 239.009 291.967 239.369 291.62L241.029 293.42C240.535 293.98 239.915 294.413 239.169 294.72C238.422 295.013 237.562 295.16 236.589 295.16ZM250.406 284.08C251.259 284.08 252.019 284.253 252.686 284.6C253.366 284.933 253.899 285.453 254.286 286.16C254.672 286.853 254.866 287.747 254.866 288.84V295H251.746V289.32C251.746 288.453 251.552 287.813 251.166 287.4C250.792 286.987 250.259 286.78 249.566 286.78C249.072 286.78 248.626 286.887 248.226 287.1C247.839 287.3 247.532 287.613 247.306 288.04C247.092 288.467 246.986 289.013 246.986 289.68V295H243.866V284.24H246.846V287.22L246.286 286.32C246.672 285.6 247.226 285.047 247.946 284.66C248.666 284.273 249.486 284.08 250.406 284.08ZM263.112 295.16C261.885 295.16 260.805 294.92 259.872 294.44C258.952 293.96 258.239 293.307 257.732 292.48C257.225 291.64 256.972 290.687 256.972 289.62C256.972 288.54 257.219 287.587 257.712 286.76C258.219 285.92 258.905 285.267 259.772 284.8C260.639 284.32 261.619 284.08 262.712 284.08C263.765 284.08 264.712 284.307 265.552 284.76C266.405 285.2 267.079 285.84 267.572 286.68C268.065 287.507 268.312 288.5 268.312 289.66C268.312 289.78 268.305 289.92 268.292 290.08C268.279 290.227 268.265 290.367 268.252 290.5H259.512V288.68H266.612L265.412 289.22C265.412 288.66 265.299 288.173 265.072 287.76C264.845 287.347 264.532 287.027 264.132 286.8C263.732 286.56 263.265 286.44 262.732 286.44C262.199 286.44 261.725 286.56 261.312 286.8C260.912 287.027 260.599 287.353 260.372 287.78C260.145 288.193 260.032 288.687 260.032 289.26V289.74C260.032 290.327 260.159 290.847 260.412 291.3C260.679 291.74 261.045 292.08 261.512 292.32C261.992 292.547 262.552 292.66 263.192 292.66C263.765 292.66 264.265 292.573 264.692 292.4C265.132 292.227 265.532 291.967 265.892 291.62L267.552 293.42C267.059 293.98 266.439 294.413 265.692 294.72C264.945 295.013 264.085 295.16 263.112 295.16ZM270.769 295V284C270.769 282.787 271.129 281.82 271.849 281.1C272.569 280.367 273.596 280 274.929 280C275.383 280 275.816 280.047 276.229 280.14C276.656 280.233 277.016 280.38 277.309 280.58L276.489 282.84C276.316 282.72 276.123 282.627 275.909 282.56C275.696 282.493 275.469 282.46 275.229 282.46C274.776 282.46 274.423 282.593 274.169 282.86C273.929 283.113 273.809 283.5 273.809 284.02V285.02L273.889 286.36V295H270.769ZM269.109 286.88V284.48H276.569V286.88H269.109ZM278.329 295V284.24H281.449V295H278.329ZM279.889 282.74C279.316 282.74 278.849 282.573 278.489 282.24C278.129 281.907 277.949 281.493 277.949 281C277.949 280.507 278.129 280.093 278.489 279.76C278.849 279.427 279.316 279.26 279.889 279.26C280.463 279.26 280.929 279.42 281.289 279.74C281.649 280.047 281.829 280.447 281.829 280.94C281.829 281.46 281.649 281.893 281.289 282.24C280.943 282.573 280.476 282.74 279.889 282.74ZM289.535 295.16C288.375 295.16 287.341 294.927 286.435 294.46C285.528 293.98 284.815 293.32 284.295 292.48C283.788 291.64 283.535 290.687 283.535 289.62C283.535 288.54 283.788 287.587 284.295 286.76C284.815 285.92 285.528 285.267 286.435 284.8C287.341 284.32 288.375 284.08 289.535 284.08C290.668 284.08 291.655 284.32 292.495 284.8C293.335 285.267 293.955 285.94 294.355 286.82L291.935 288.12C291.655 287.613 291.301 287.24 290.875 287C290.461 286.76 290.008 286.64 289.515 286.64C288.981 286.64 288.501 286.76 288.075 287C287.648 287.24 287.308 287.58 287.055 288.02C286.815 288.46 286.695 288.993 286.695 289.62C286.695 290.247 286.815 290.78 287.055 291.22C287.308 291.66 287.648 292 288.075 292.24C288.501 292.48 288.981 292.6 289.515 292.6C290.008 292.6 290.461 292.487 290.875 292.26C291.301 292.02 291.655 291.64 291.935 291.12L294.355 292.44C293.955 293.307 293.335 293.98 292.495 294.46C291.655 294.927 290.668 295.16 289.535 295.16ZM296.092 295V284.24H299.212V295H296.092ZM297.652 282.74C297.079 282.74 296.612 282.573 296.252 282.24C295.892 281.907 295.712 281.493 295.712 281C295.712 280.507 295.892 280.093 296.252 279.76C296.612 279.427 297.079 279.26 297.652 279.26C298.226 279.26 298.692 279.42 299.052 279.74C299.412 280.047 299.592 280.447 299.592 280.94C299.592 281.46 299.412 281.893 299.052 282.24C298.706 282.573 298.239 282.74 297.652 282.74ZM308.708 295V292.9L308.508 292.44V288.68C308.508 288.013 308.301 287.493 307.888 287.12C307.488 286.747 306.868 286.56 306.028 286.56C305.455 286.56 304.888 286.653 304.328 286.84C303.781 287.013 303.315 287.253 302.928 287.56L301.808 285.38C302.395 284.967 303.101 284.647 303.928 284.42C304.755 284.193 305.595 284.08 306.448 284.08C308.088 284.08 309.361 284.467 310.268 285.24C311.175 286.013 311.628 287.22 311.628 288.86V295H308.708ZM305.428 295.16C304.588 295.16 303.868 295.02 303.268 294.74C302.668 294.447 302.208 294.053 301.888 293.56C301.568 293.067 301.408 292.513 301.408 291.9C301.408 291.26 301.561 290.7 301.868 290.22C302.188 289.74 302.688 289.367 303.368 289.1C304.048 288.82 304.935 288.68 306.028 288.68H308.888V290.5H306.368C305.635 290.5 305.128 290.62 304.848 290.86C304.581 291.1 304.448 291.4 304.448 291.76C304.448 292.16 304.601 292.48 304.908 292.72C305.228 292.947 305.661 293.06 306.208 293.06C306.728 293.06 307.195 292.94 307.608 292.7C308.021 292.447 308.321 292.08 308.508 291.6L308.988 293.04C308.761 293.733 308.348 294.26 307.748 294.62C307.148 294.98 306.375 295.16 305.428 295.16ZM319.15 295.16C318.137 295.16 317.223 294.933 316.41 294.48C315.597 294.013 314.95 293.367 314.47 292.54C314.003 291.713 313.77 290.74 313.77 289.62C313.77 288.487 314.003 287.507 314.47 286.68C314.95 285.853 315.597 285.213 316.41 284.76C317.223 284.307 318.137 284.08 319.15 284.08C320.057 284.08 320.85 284.28 321.53 284.68C322.21 285.08 322.737 285.687 323.11 286.5C323.483 287.313 323.67 288.353 323.67 289.62C323.67 290.873 323.49 291.913 323.13 292.74C322.77 293.553 322.25 294.16 321.57 294.56C320.903 294.96 320.097 295.16 319.15 295.16ZM319.69 292.6C320.197 292.6 320.657 292.48 321.07 292.24C321.483 292 321.81 291.66 322.05 291.22C322.303 290.767 322.43 290.233 322.43 289.62C322.43 288.993 322.303 288.46 322.05 288.02C321.81 287.58 321.483 287.24 321.07 287C320.657 286.76 320.197 286.64 319.69 286.64C319.17 286.64 318.703 286.76 318.29 287C317.877 287.24 317.543 287.58 317.29 288.02C317.05 288.46 316.93 288.993 316.93 289.62C316.93 290.233 317.05 290.767 317.29 291.22C317.543 291.66 317.877 292 318.29 292.24C318.703 292.48 319.17 292.6 319.69 292.6ZM322.51 295V292.8L322.57 289.6L322.37 286.42V280.16H325.49V295H322.51ZM333.498 295.16C332.351 295.16 331.331 294.92 330.438 294.44C329.558 293.96 328.858 293.307 328.338 292.48C327.831 291.64 327.578 290.687 327.578 289.62C327.578 288.54 327.831 287.587 328.338 286.76C328.858 285.92 329.558 285.267 330.438 284.8C331.331 284.32 332.351 284.08 333.498 284.08C334.631 284.08 335.644 284.32 336.538 284.8C337.431 285.267 338.131 285.913 338.638 286.74C339.144 287.567 339.398 288.527 339.398 289.62C339.398 290.687 339.144 291.64 338.638 292.48C338.131 293.307 337.431 293.96 336.538 294.44C335.644 294.92 334.631 295.16 333.498 295.16ZM333.498 292.6C334.018 292.6 334.484 292.48 334.898 292.24C335.311 292 335.638 291.66 335.878 291.22C336.118 290.767 336.238 290.233 336.238 289.62C336.238 288.993 336.118 288.46 335.878 288.02C335.638 287.58 335.311 287.24 334.898 287C334.484 286.76 334.018 286.64 333.498 286.64C332.978 286.64 332.511 286.76 332.098 287C331.684 287.24 331.351 287.58 331.098 288.02C330.858 288.46 330.738 288.993 330.738 289.62C330.738 290.233 330.858 290.767 331.098 291.22C331.351 291.66 331.684 292 332.098 292.24C332.511 292.48 332.978 292.6 333.498 292.6ZM345.103 295.16C344.183 295.16 343.296 295.053 342.443 294.84C341.603 294.613 340.936 294.333 340.443 294L341.483 291.76C341.976 292.067 342.556 292.32 343.223 292.52C343.903 292.707 344.57 292.8 345.223 292.8C345.943 292.8 346.45 292.713 346.743 292.54C347.05 292.367 347.203 292.127 347.203 291.82C347.203 291.567 347.083 291.38 346.843 291.26C346.616 291.127 346.31 291.027 345.923 290.96C345.536 290.893 345.11 290.827 344.643 290.76C344.19 290.693 343.73 290.607 343.263 290.5C342.796 290.38 342.37 290.207 341.983 289.98C341.596 289.753 341.283 289.447 341.043 289.06C340.816 288.673 340.703 288.173 340.703 287.56C340.703 286.88 340.896 286.28 341.283 285.76C341.683 285.24 342.256 284.833 343.003 284.54C343.75 284.233 344.643 284.08 345.683 284.08C346.416 284.08 347.163 284.16 347.923 284.32C348.683 284.48 349.316 284.713 349.823 285.02L348.783 287.24C348.263 286.933 347.736 286.727 347.203 286.62C346.683 286.5 346.176 286.44 345.683 286.44C344.99 286.44 344.483 286.533 344.163 286.72C343.843 286.907 343.683 287.147 343.683 287.44C343.683 287.707 343.796 287.907 344.023 288.04C344.263 288.173 344.576 288.28 344.963 288.36C345.35 288.44 345.77 288.513 346.223 288.58C346.69 288.633 347.156 288.72 347.623 288.84C348.09 288.96 348.51 289.133 348.883 289.36C349.27 289.573 349.583 289.873 349.823 290.26C350.063 290.633 350.183 291.127 350.183 291.74C350.183 292.407 349.983 293 349.583 293.52C349.183 294.027 348.603 294.427 347.843 294.72C347.096 295.013 346.183 295.16 345.103 295.16Z" fill="white"/>
<rect x="186.5" y="198.5" width="194" height="131" rx="9.5" stroke="white" stroke-opacity="0.2" style="mix-blend-mode:overlay"/>
</g>
<g filter="url(#filter2_b_44_214)">
<rect x="397" y="152" width="184" height="132" rx="10" fill="white" fill-opacity="0.15"/>
<path d="M431.7 198.62V189.38H434.28V198.62H431.7ZM428.24 195.22V192.78H437.76V195.22H428.24ZM439.301 201V198.9L444.701 193.8C445.127 193.413 445.441 193.067 445.641 192.76C445.841 192.453 445.974 192.173 446.041 191.92C446.121 191.667 446.161 191.433 446.161 191.22C446.161 190.66 445.967 190.233 445.581 189.94C445.207 189.633 444.654 189.48 443.921 189.48C443.334 189.48 442.787 189.593 442.281 189.82C441.787 190.047 441.367 190.4 441.021 190.88L438.661 189.36C439.194 188.56 439.941 187.927 440.901 187.46C441.861 186.993 442.967 186.76 444.221 186.76C445.261 186.76 446.167 186.933 446.941 187.28C447.727 187.613 448.334 188.087 448.761 188.7C449.201 189.313 449.421 190.047 449.421 190.9C449.421 191.353 449.361 191.807 449.241 192.26C449.134 192.7 448.907 193.167 448.561 193.66C448.227 194.153 447.734 194.707 447.081 195.32L442.601 199.54L441.981 198.36H449.881V201H439.301ZM457.218 201.24C456.071 201.24 455.044 200.96 454.138 200.4C453.231 199.827 452.518 199 451.998 197.92C451.478 196.84 451.218 195.533 451.218 194C451.218 192.467 451.478 191.16 451.998 190.08C452.518 189 453.231 188.18 454.138 187.62C455.044 187.047 456.071 186.76 457.218 186.76C458.378 186.76 459.404 187.047 460.298 187.62C461.204 188.18 461.918 189 462.438 190.08C462.958 191.16 463.218 192.467 463.218 194C463.218 195.533 462.958 196.84 462.438 197.92C461.918 199 461.204 199.827 460.298 200.4C459.404 200.96 458.378 201.24 457.218 201.24ZM457.218 198.5C457.764 198.5 458.238 198.347 458.638 198.04C459.051 197.733 459.371 197.247 459.598 196.58C459.838 195.913 459.958 195.053 459.958 194C459.958 192.947 459.838 192.087 459.598 191.42C459.371 190.753 459.051 190.267 458.638 189.96C458.238 189.653 457.764 189.5 457.218 189.5C456.684 189.5 456.211 189.653 455.798 189.96C455.398 190.267 455.078 190.753 454.838 191.42C454.611 192.087 454.498 192.947 454.498 194C454.498 195.053 454.611 195.913 454.838 196.58C455.078 197.247 455.398 197.733 455.798 198.04C456.211 198.347 456.684 198.5 457.218 198.5ZM470.792 201.24C469.645 201.24 468.618 200.96 467.712 200.4C466.805 199.827 466.092 199 465.572 197.92C465.052 196.84 464.792 195.533 464.792 194C464.792 192.467 465.052 191.16 465.572 190.08C466.092 189 466.805 188.18 467.712 187.62C468.618 187.047 469.645 186.76 470.792 186.76C471.952 186.76 472.978 187.047 473.872 187.62C474.778 188.18 475.492 189 476.012 190.08C476.532 191.16 476.792 192.467 476.792 194C476.792 195.533 476.532 196.84 476.012 197.92C475.492 199 474.778 199.827 473.872 200.4C472.978 200.96 471.952 201.24 470.792 201.24ZM470.792 198.5C471.338 198.5 471.812 198.347 472.212 198.04C472.625 197.733 472.945 197.247 473.172 196.58C473.412 195.913 473.532 195.053 473.532 194C473.532 192.947 473.412 192.087 473.172 191.42C472.945 190.753 472.625 190.267 472.212 189.96C471.812 189.653 471.338 189.5 470.792 189.5C470.258 189.5 469.785 189.653 469.372 189.96C468.972 190.267 468.652 190.753 468.412 191.42C468.185 192.087 468.072 192.947 468.072 194C468.072 195.053 468.185 195.913 468.412 196.58C468.652 197.247 468.972 197.733 469.372 198.04C469.785 198.347 470.258 198.5 470.792 198.5ZM434.98 214.08C435.833 214.08 436.593 214.253 437.26 214.6C437.94 214.933 438.473 215.453 438.86 216.16C439.247 216.853 439.44 217.747 439.44 218.84V225H436.32V219.32C436.32 218.453 436.127 217.813 435.74 217.4C435.367 216.987 434.833 216.78 434.14 216.78C433.647 216.78 433.2 216.887 432.8 217.1C432.413 217.3 432.107 217.613 431.88 218.04C431.667 218.467 431.56 219.013 431.56 219.68V225H428.44V210.16H431.56V217.22L430.86 216.32C431.247 215.6 431.8 215.047 432.52 214.66C433.24 214.273 434.06 214.08 434.98 214.08ZM447.466 225.16C446.32 225.16 445.3 224.92 444.406 224.44C443.526 223.96 442.826 223.307 442.306 222.48C441.8 221.64 441.546 220.687 441.546 219.62C441.546 218.54 441.8 217.587 442.306 216.76C442.826 215.92 443.526 215.267 444.406 214.8C445.3 214.32 446.32 214.08 447.466 214.08C448.6 214.08 449.613 214.32 450.506 214.8C451.4 215.267 452.1 215.913 452.606 216.74C453.113 217.567 453.366 218.527 453.366 219.62C453.366 220.687 453.113 221.64 452.606 222.48C452.1 223.307 451.4 223.96 450.506 224.44C449.613 224.92 448.6 225.16 447.466 225.16ZM447.466 222.6C447.986 222.6 448.453 222.48 448.866 222.24C449.28 222 449.606 221.66 449.846 221.22C450.086 220.767 450.206 220.233 450.206 219.62C450.206 218.993 450.086 218.46 449.846 218.02C449.606 217.58 449.28 217.24 448.866 217C448.453 216.76 447.986 216.64 447.466 216.64C446.946 216.64 446.48 216.76 446.066 217C445.653 217.24 445.32 217.58 445.066 218.02C444.826 218.46 444.706 218.993 444.706 219.62C444.706 220.233 444.826 220.767 445.066 221.22C445.32 221.66 445.653 222 446.066 222.24C446.48 222.48 446.946 222.6 447.466 222.6ZM455.452 225V214.24H458.432V217.28L458.012 216.4C458.332 215.64 458.845 215.067 459.552 214.68C460.258 214.28 461.118 214.08 462.132 214.08V216.96C461.998 216.947 461.878 216.94 461.772 216.94C461.665 216.927 461.552 216.92 461.432 216.92C460.578 216.92 459.885 217.167 459.352 217.66C458.832 218.14 458.572 218.893 458.572 219.92V225H455.452ZM469.884 225V222.9L469.684 222.44V218.68C469.684 218.013 469.477 217.493 469.064 217.12C468.664 216.747 468.044 216.56 467.204 216.56C466.63 216.56 466.064 216.653 465.504 216.84C464.957 217.013 464.49 217.253 464.104 217.56L462.984 215.38C463.57 214.967 464.277 214.647 465.104 214.42C465.93 214.193 466.77 214.08 467.624 214.08C469.264 214.08 470.537 214.467 471.444 215.24C472.35 216.013 472.804 217.22 472.804 218.86V225H469.884ZM466.604 225.16C465.764 225.16 465.044 225.02 464.444 224.74C463.844 224.447 463.384 224.053 463.064 223.56C462.744 223.067 462.584 222.513 462.584 221.9C462.584 221.26 462.737 220.7 463.044 220.22C463.364 219.74 463.864 219.367 464.544 219.1C465.224 218.82 466.11 218.68 467.204 218.68H470.064V220.5H467.544C466.81 220.5 466.304 220.62 466.024 220.86C465.757 221.1 465.624 221.4 465.624 221.76C465.624 222.16 465.777 222.48 466.084 222.72C466.404 222.947 466.837 223.06 467.384 223.06C467.904 223.06 468.37 222.94 468.784 222.7C469.197 222.447 469.497 222.08 469.684 221.6L470.164 223.04C469.937 223.733 469.524 224.26 468.924 224.62C468.324 224.98 467.55 225.16 466.604 225.16ZM479.248 225.16C478.328 225.16 477.441 225.053 476.588 224.84C475.748 224.613 475.081 224.333 474.588 224L475.628 221.76C476.121 222.067 476.701 222.32 477.368 222.52C478.048 222.707 478.714 222.8 479.368 222.8C480.088 222.8 480.594 222.713 480.888 222.54C481.194 222.367 481.348 222.127 481.348 221.82C481.348 221.567 481.228 221.38 480.988 221.26C480.761 221.127 480.454 221.027 480.067 220.96C479.681 220.893 479.254 220.827 478.788 220.76C478.334 220.693 477.874 220.607 477.408 220.5C476.941 220.38 476.514 220.207 476.128 219.98C475.741 219.753 475.428 219.447 475.188 219.06C474.961 218.673 474.847 218.173 474.847 217.56C474.847 216.88 475.041 216.28 475.428 215.76C475.828 215.24 476.401 214.833 477.148 214.54C477.894 214.233 478.788 214.08 479.828 214.08C480.561 214.08 481.308 214.16 482.068 214.32C482.828 214.48 483.461 214.713 483.968 215.02L482.928 217.24C482.408 216.933 481.881 216.727 481.348 216.62C480.828 216.5 480.321 216.44 479.828 216.44C479.134 216.44 478.628 216.533 478.308 216.72C477.988 216.907 477.828 217.147 477.828 217.44C477.828 217.707 477.941 217.907 478.168 218.04C478.408 218.173 478.721 218.28 479.108 218.36C479.494 218.44 479.914 218.513 480.368 218.58C480.834 218.633 481.301 218.72 481.768 218.84C482.234 218.96 482.654 219.133 483.028 219.36C483.414 219.573 483.728 219.873 483.968 220.26C484.208 220.633 484.328 221.127 484.328 221.74C484.328 222.407 484.128 223 483.728 223.52C483.328 224.027 482.748 224.427 481.988 224.72C481.241 225.013 480.328 225.16 479.248 225.16ZM432.84 249.16C431.573 249.16 430.587 248.84 429.88 248.2C429.173 247.547 428.82 246.58 428.82 245.3V235.86H431.94V245.26C431.94 245.713 432.06 246.067 432.3 246.32C432.54 246.56 432.867 246.68 433.28 246.68C433.773 246.68 434.193 246.547 434.54 246.28L435.38 248.48C435.06 248.707 434.673 248.88 434.22 249C433.78 249.107 433.32 249.16 432.84 249.16ZM427.16 240.88V238.48H434.62V240.88H427.16ZM437.131 249V238.24H440.111V241.28L439.691 240.4C440.011 239.64 440.525 239.067 441.231 238.68C441.938 238.28 442.798 238.08 443.811 238.08V240.96C443.678 240.947 443.558 240.94 443.451 240.94C443.345 240.927 443.231 240.92 443.111 240.92C442.258 240.92 441.565 241.167 441.031 241.66C440.511 242.14 440.251 242.893 440.251 243.92V249H437.131ZM451.563 249V246.9L451.363 246.44V242.68C451.363 242.013 451.157 241.493 450.743 241.12C450.343 240.747 449.723 240.56 448.883 240.56C448.31 240.56 447.743 240.653 447.183 240.84C446.637 241.013 446.17 241.253 445.783 241.56L444.663 239.38C445.25 238.967 445.957 238.647 446.783 238.42C447.61 238.193 448.45 238.08 449.303 238.08C450.943 238.08 452.217 238.467 453.123 239.24C454.03 240.013 454.483 241.22 454.483 242.86V249H451.563ZM448.283 249.16C447.443 249.16 446.723 249.02 446.123 248.74C445.523 248.447 445.063 248.053 444.743 247.56C444.423 247.067 444.263 246.513 444.263 245.9C444.263 245.26 444.417 244.7 444.723 244.22C445.043 243.74 445.543 243.367 446.223 243.1C446.903 242.82 447.79 242.68 448.883 242.68H451.743V244.5H449.223C448.49 244.5 447.983 244.62 447.703 244.86C447.437 245.1 447.303 245.4 447.303 245.76C447.303 246.16 447.457 246.48 447.763 246.72C448.083 246.947 448.517 247.06 449.063 247.06C449.583 247.06 450.05 246.94 450.463 246.7C450.877 246.447 451.177 246.08 451.363 245.6L451.843 247.04C451.617 247.733 451.203 248.26 450.603 248.62C450.003 248.98 449.23 249.16 448.283 249.16ZM463.667 249.16C462.721 249.16 461.907 248.96 461.227 248.56C460.547 248.16 460.027 247.553 459.667 246.74C459.307 245.913 459.127 244.873 459.127 243.62C459.127 242.353 459.314 241.313 459.687 240.5C460.074 239.687 460.607 239.08 461.287 238.68C461.967 238.28 462.761 238.08 463.667 238.08C464.681 238.08 465.587 238.307 466.387 238.76C467.201 239.213 467.841 239.853 468.307 240.68C468.787 241.507 469.027 242.487 469.027 243.62C469.027 244.74 468.787 245.713 468.307 246.54C467.841 247.367 467.201 248.013 466.387 248.48C465.587 248.933 464.681 249.16 463.667 249.16ZM457.307 249V234.16H460.427V240.42L460.227 243.6L460.287 246.8V249H457.307ZM463.127 246.6C463.647 246.6 464.107 246.48 464.507 246.24C464.921 246 465.247 245.66 465.487 245.22C465.741 244.767 465.867 244.233 465.867 243.62C465.867 242.993 465.741 242.46 465.487 242.02C465.247 241.58 464.921 241.24 464.507 241C464.107 240.76 463.647 240.64 463.127 240.64C462.607 240.64 462.141 240.76 461.727 241C461.314 241.24 460.987 241.58 460.747 242.02C460.507 242.46 460.387 242.993 460.387 243.62C460.387 244.233 460.507 244.767 460.747 245.22C460.987 245.66 461.314 246 461.727 246.24C462.141 246.48 462.607 246.6 463.127 246.6ZM477.54 249V246.9L477.34 246.44V242.68C477.34 242.013 477.133 241.493 476.72 241.12C476.32 240.747 475.7 240.56 474.86 240.56C474.287 240.56 473.72 240.653 473.16 240.84C472.613 241.013 472.147 241.253 471.76 241.56L470.64 239.38C471.227 238.967 471.933 238.647 472.76 238.42C473.587 238.193 474.427 238.08 475.28 238.08C476.92 238.08 478.193 238.467 479.1 239.24C480.007 240.013 480.46 241.22 480.46 242.86V249H477.54ZM474.26 249.16C473.42 249.16 472.7 249.02 472.1 248.74C471.5 248.447 471.04 248.053 470.72 247.56C470.4 247.067 470.24 246.513 470.24 245.9C470.24 245.26 470.393 244.7 470.7 244.22C471.02 243.74 471.52 243.367 472.2 243.1C472.88 242.82 473.767 242.68 474.86 242.68H477.72V244.5H475.2C474.467 244.5 473.96 244.62 473.68 244.86C473.413 245.1 473.28 245.4 473.28 245.76C473.28 246.16 473.433 246.48 473.74 246.72C474.06 246.947 474.493 247.06 475.04 247.06C475.56 247.06 476.027 246.94 476.44 246.7C476.853 246.447 477.153 246.08 477.34 245.6L477.82 247.04C477.593 247.733 477.18 248.26 476.58 248.62C475.98 248.98 475.207 249.16 474.26 249.16ZM483.284 249V234.16H486.404V249H483.284ZM495.839 238.08C496.693 238.08 497.453 238.253 498.119 238.6C498.799 238.933 499.333 239.453 499.719 240.16C500.106 240.853 500.299 241.747 500.299 242.84V249H497.179V243.32C497.179 242.453 496.986 241.813 496.599 241.4C496.226 240.987 495.693 240.78 494.999 240.78C494.506 240.78 494.059 240.887 493.659 241.1C493.273 241.3 492.966 241.613 492.739 242.04C492.526 242.467 492.419 243.013 492.419 243.68V249H489.299V234.16H492.419V241.22L491.719 240.32C492.106 239.6 492.659 239.047 493.379 238.66C494.099 238.273 494.919 238.08 495.839 238.08ZM509.728 249V246.9L509.528 246.44V242.68C509.528 242.013 509.321 241.493 508.908 241.12C508.508 240.747 507.888 240.56 507.048 240.56C506.474 240.56 505.908 240.653 505.348 240.84C504.801 241.013 504.334 241.253 503.948 241.56L502.828 239.38C503.414 238.967 504.121 238.647 504.948 238.42C505.774 238.193 506.614 238.08 507.468 238.08C509.108 238.08 510.381 238.467 511.288 239.24C512.194 240.013 512.648 241.22 512.648 242.86V249H509.728ZM506.448 249.16C505.608 249.16 504.888 249.02 504.288 248.74C503.688 248.447 503.228 248.053 502.908 247.56C502.588 247.067 502.428 246.513 502.428 245.9C502.428 245.26 502.581 244.7 502.888 244.22C503.208 243.74 503.708 243.367 504.388 243.1C505.068 242.82 505.954 242.68 507.048 242.68H509.908V244.5H507.388C506.654 244.5 506.148 244.62 505.868 244.86C505.601 245.1 505.468 245.4 505.468 245.76C505.468 246.16 505.621 246.48 505.928 246.72C506.248 246.947 506.681 247.06 507.228 247.06C507.748 247.06 508.214 246.94 508.628 246.7C509.041 246.447 509.341 246.08 509.528 245.6L510.008 247.04C509.781 247.733 509.368 248.26 508.768 248.62C508.168 248.98 507.394 249.16 506.448 249.16ZM520.169 249.16C519.156 249.16 518.243 248.933 517.429 248.48C516.616 248.013 515.969 247.367 515.489 246.54C515.023 245.713 514.789 244.74 514.789 243.62C514.789 242.487 515.023 241.507 515.489 240.68C515.969 239.853 516.616 239.213 517.429 238.76C518.243 238.307 519.156 238.08 520.169 238.08C521.076 238.08 521.869 238.28 522.549 238.68C523.229 239.08 523.756 239.687 524.129 240.5C524.503 241.313 524.689 242.353 524.689 243.62C524.689 244.873 524.509 245.913 524.149 246.74C523.789 247.553 523.269 248.16 522.589 248.56C521.923 248.96 521.116 249.16 520.169 249.16ZM520.709 246.6C521.216 246.6 521.676 246.48 522.089 246.24C522.503 246 522.829 245.66 523.069 245.22C523.323 244.767 523.449 244.233 523.449 243.62C523.449 242.993 523.323 242.46 523.069 242.02C522.829 241.58 522.503 241.24 522.089 241C521.676 240.76 521.216 240.64 520.709 240.64C520.189 240.64 519.723 240.76 519.309 241C518.896 241.24 518.563 241.58 518.309 242.02C518.069 242.46 517.949 242.993 517.949 243.62C517.949 244.233 518.069 244.767 518.309 245.22C518.563 245.66 518.896 246 519.309 246.24C519.723 246.48 520.189 246.6 520.709 246.6ZM523.529 249V246.8L523.589 243.6L523.389 240.42V234.16H526.509V249H523.529ZM535.997 249V246.9L535.797 246.44V242.68C535.797 242.013 535.59 241.493 535.177 241.12C534.777 240.747 534.157 240.56 533.317 240.56C532.744 240.56 532.177 240.653 531.617 240.84C531.07 241.013 530.604 241.253 530.217 241.56L529.097 239.38C529.684 238.967 530.39 238.647 531.217 238.42C532.044 238.193 532.884 238.08 533.737 238.08C535.377 238.08 536.65 238.467 537.557 239.24C538.464 240.013 538.917 241.22 538.917 242.86V249H535.997ZM532.717 249.16C531.877 249.16 531.157 249.02 530.557 248.74C529.957 248.447 529.497 248.053 529.177 247.56C528.857 247.067 528.697 246.513 528.697 245.9C528.697 245.26 528.85 244.7 529.157 244.22C529.477 243.74 529.977 243.367 530.657 243.1C531.337 242.82 532.224 242.68 533.317 242.68H536.177V244.5H533.657C532.924 244.5 532.417 244.62 532.137 244.86C531.87 245.1 531.737 245.4 531.737 245.76C531.737 246.16 531.89 246.48 532.197 246.72C532.517 246.947 532.95 247.06 533.497 247.06C534.017 247.06 534.484 246.94 534.897 246.7C535.31 246.447 535.61 246.08 535.797 245.6L536.277 247.04C536.05 247.733 535.637 248.26 535.037 248.62C534.437 248.98 533.664 249.16 532.717 249.16ZM545.361 249.16C544.441 249.16 543.554 249.053 542.701 248.84C541.861 248.613 541.194 248.333 540.701 248L541.741 245.76C542.234 246.067 542.814 246.32 543.481 246.52C544.161 246.707 544.827 246.8 545.481 246.8C546.201 246.8 546.707 246.713 547.001 246.54C547.307 246.367 547.461 246.127 547.461 245.82C547.461 245.567 547.341 245.38 547.101 245.26C546.874 245.127 546.567 245.027 546.181 244.96C545.794 244.893 545.367 244.827 544.901 244.76C544.447 244.693 543.987 244.607 543.521 244.5C543.054 244.38 542.627 244.207 542.241 243.98C541.854 243.753 541.541 243.447 541.301 243.06C541.074 242.673 540.961 242.173 540.961 241.56C540.961 240.88 541.154 240.28 541.541 239.76C541.941 239.24 542.514 238.833 543.261 238.54C544.007 238.233 544.901 238.08 545.941 238.08C546.674 238.08 547.421 238.16 548.181 238.32C548.941 238.48 549.574 238.713 550.081 239.02L549.041 241.24C548.521 240.933 547.994 240.727 547.461 240.62C546.941 240.5 546.434 240.44 545.941 240.44C545.247 240.44 544.741 240.533 544.421 240.72C544.101 240.907 543.941 241.147 543.941 241.44C543.941 241.707 544.054 241.907 544.281 242.04C544.521 242.173 544.834 242.28 545.221 242.36C545.607 242.44 546.027 242.513 546.481 242.58C546.947 242.633 547.414 242.72 547.881 242.84C548.347 242.96 548.767 243.133 549.141 243.36C549.527 243.573 549.841 243.873 550.081 244.26C550.321 244.633 550.441 245.127 550.441 245.74C550.441 246.407 550.241 247 549.841 247.52C549.441 248.027 548.861 248.427 548.101 248.72C547.354 249.013 546.441 249.16 545.361 249.16Z" fill="white"/>
<rect x="397.5" y="152.5" width="183" height="131" rx="9.5" stroke="white" stroke-opacity="0.2" style="mix-blend-mode:overlay"/>
</g>
<g filter="url(#filter3_b_44_214)">
<rect y="52" width="241" height="132" rx="10" fill="white" fill-opacity="0.15"/>
<path d="M34.7 98.62V89.38H37.28V98.62H34.7ZM31.24 95.22V92.78H40.76V95.22H31.24ZM42.3006 101V98.9L47.7006 93.8C48.1273 93.4133 48.4406 93.0667 48.6406 92.76C48.8406 92.4533 48.974 92.1733 49.0406 91.92C49.1206 91.6667 49.1606 91.4333 49.1606 91.22C49.1606 90.66 48.9673 90.2333 48.5806 89.94C48.2073 89.6333 47.654 89.48 46.9206 89.48C46.334 89.48 45.7873 89.5933 45.2806 89.82C44.7873 90.0467 44.3673 90.4 44.0206 90.88L41.6606 89.36C42.194 88.56 42.9406 87.9267 43.9006 87.46C44.8606 86.9933 45.9673 86.76 47.2206 86.76C48.2606 86.76 49.1673 86.9333 49.9406 87.28C50.7273 87.6133 51.334 88.0867 51.7606 88.7C52.2006 89.3133 52.4206 90.0467 52.4206 90.9C52.4206 91.3533 52.3606 91.8067 52.2406 92.26C52.134 92.7 51.9073 93.1667 51.5606 93.66C51.2273 94.1533 50.734 94.7067 50.0806 95.32L45.6006 99.54L44.9806 98.36H52.8806V101H42.3006ZM58.9775 101.24C58.0042 101.24 57.0375 101.113 56.0775 100.86C55.1308 100.593 54.3175 100.22 53.6375 99.74L54.9175 97.26C55.4508 97.6467 56.0642 97.9533 56.7575 98.18C57.4642 98.4067 58.1775 98.52 58.8975 98.52C59.7108 98.52 60.3508 98.36 60.8175 98.04C61.2842 97.72 61.5175 97.2733 61.5175 96.7C61.5175 96.34 61.4242 96.02 61.2375 95.74C61.0508 95.46 60.7175 95.2467 60.2375 95.1C59.7708 94.9533 59.1108 94.88 58.2575 94.88H54.6775L55.3975 87H63.9375V89.6H56.5575L58.2375 88.12L57.7375 93.74L56.0575 92.26H59.0175C60.4042 92.26 61.5175 92.4533 62.3575 92.84C63.2108 93.2133 63.8308 93.7267 64.2175 94.38C64.6042 95.0333 64.7975 95.7733 64.7975 96.6C64.7975 97.4267 64.5908 98.1933 64.1775 98.9C63.7642 99.5933 63.1242 100.16 62.2575 100.6C61.4042 101.027 60.3108 101.24 58.9775 101.24ZM71.912 101.24C70.7387 101.24 69.712 101.067 68.832 100.72C67.952 100.36 67.2654 99.86 66.772 99.22C66.2787 98.5667 66.032 97.8067 66.032 96.94C66.032 96.0733 66.272 95.34 66.752 94.74C67.2454 94.1267 67.932 93.6667 68.812 93.36C69.692 93.04 70.7254 92.88 71.912 92.88C73.112 92.88 74.152 93.04 75.032 93.36C75.9254 93.6667 76.612 94.1267 77.092 94.74C77.5854 95.34 77.832 96.0733 77.832 96.94C77.832 97.8067 77.5854 98.5667 77.092 99.22C76.5987 99.86 75.9054 100.36 75.012 100.72C74.132 101.067 73.0987 101.24 71.912 101.24ZM71.912 98.86C72.7254 98.86 73.3654 98.68 73.832 98.32C74.312 97.96 74.552 97.4667 74.552 96.84C74.552 96.2133 74.312 95.7267 73.832 95.38C73.3654 95.02 72.7254 94.84 71.912 94.84C71.112 94.84 70.4787 95.02 70.012 95.38C69.5454 95.7267 69.312 96.2133 69.312 96.84C69.312 97.4667 69.5454 97.96 70.012 98.32C70.4787 98.68 71.112 98.86 71.912 98.86ZM71.912 94.52C70.832 94.52 69.8854 94.3733 69.072 94.08C68.272 93.7867 67.6454 93.36 67.192 92.8C66.752 92.2267 66.532 91.5467 66.532 90.76C66.532 89.9333 66.7587 89.2267 67.212 88.64C67.6654 88.04 68.2987 87.58 69.112 87.26C69.9254 86.9267 70.8587 86.76 71.912 86.76C72.992 86.76 73.932 86.9267 74.732 87.26C75.5454 87.58 76.1787 88.04 76.632 88.64C77.0987 89.2267 77.332 89.9333 77.332 90.76C77.332 91.5467 77.1054 92.2267 76.652 92.8C76.212 93.36 75.5854 93.7867 74.772 94.08C73.9587 94.3733 73.0054 94.52 71.912 94.52ZM71.912 92.62C72.592 92.62 73.1254 92.4667 73.512 92.16C73.912 91.8533 74.112 91.4333 74.112 90.9C74.112 90.34 73.9054 89.9067 73.492 89.6C73.092 89.2933 72.5654 89.14 71.912 89.14C71.272 89.14 70.752 89.2933 70.352 89.6C69.952 89.9067 69.752 90.34 69.752 90.9C69.752 91.4333 69.9454 91.8533 70.332 92.16C70.7187 92.4667 71.2454 92.62 71.912 92.62ZM84.2352 86.76C85.5285 86.76 86.6418 87.0267 87.5752 87.56C88.5085 88.0933 89.2285 88.8733 89.7352 89.9C90.2418 90.9133 90.4952 92.18 90.4952 93.7C90.4952 95.3133 90.1885 96.68 89.5752 97.8C88.9752 98.92 88.1418 99.7733 87.0752 100.36C86.0085 100.947 84.7685 101.24 83.3552 101.24C82.6218 101.24 81.9152 101.16 81.2352 101C80.5552 100.84 79.9685 100.6 79.4752 100.28L80.6752 97.9C81.0618 98.1667 81.4752 98.3533 81.9152 98.46C82.3552 98.5533 82.8152 98.6 83.2952 98.6C84.4952 98.6 85.4485 98.2333 86.1552 97.5C86.8752 96.7667 87.2352 95.68 87.2352 94.24C87.2352 94 87.2285 93.7333 87.2152 93.44C87.2018 93.1467 87.1685 92.8533 87.1152 92.56L87.9952 93.4C87.7685 93.92 87.4485 94.36 87.0352 94.72C86.6218 95.0667 86.1418 95.3333 85.5952 95.52C85.0485 95.6933 84.4352 95.78 83.7552 95.78C82.8618 95.78 82.0485 95.6 81.3152 95.24C80.5952 94.88 80.0152 94.3733 79.5752 93.72C79.1485 93.0667 78.9352 92.3 78.9352 91.42C78.9352 90.46 79.1685 89.6333 79.6352 88.94C80.1152 88.2467 80.7552 87.7133 81.5552 87.34C82.3685 86.9533 83.2618 86.76 84.2352 86.76ZM84.4352 89.18C83.9685 89.18 83.5618 89.2667 83.2152 89.44C82.8685 89.6 82.5952 89.84 82.3952 90.16C82.1952 90.4667 82.0952 90.8333 82.0952 91.26C82.0952 91.9 82.3085 92.4133 82.7352 92.8C83.1752 93.1733 83.7552 93.36 84.4752 93.36C84.9418 93.36 85.3552 93.2733 85.7152 93.1C86.0885 92.9133 86.3752 92.66 86.5752 92.34C86.7752 92.02 86.8752 91.66 86.8752 91.26C86.8752 90.86 86.7752 90.5067 86.5752 90.2C86.3885 89.88 86.1152 89.6333 85.7552 89.46C85.3952 89.2733 84.9552 89.18 84.4352 89.18ZM37.98 114.08C38.8333 114.08 39.5933 114.253 40.26 114.6C40.94 114.933 41.4733 115.453 41.86 116.16C42.2467 116.853 42.44 117.747 42.44 118.84V125H39.32V119.32C39.32 118.453 39.1267 117.813 38.74 117.4C38.3667 116.987 37.8333 116.78 37.14 116.78C36.6467 116.78 36.2 116.887 35.8 117.1C35.4133 117.3 35.1067 117.613 34.88 118.04C34.6667 118.467 34.56 119.013 34.56 119.68V125H31.44V110.16H34.56V117.22L33.86 116.32C34.2467 115.6 34.8 115.047 35.52 114.66C36.24 114.273 37.06 114.08 37.98 114.08ZM50.4663 125.16C49.3196 125.16 48.2996 124.92 47.4063 124.44C46.5263 123.96 45.8263 123.307 45.3063 122.48C44.7996 121.64 44.5463 120.687 44.5463 119.62C44.5463 118.54 44.7996 117.587 45.3063 116.76C45.8263 115.92 46.5263 115.267 47.4063 114.8C48.2996 114.32 49.3196 114.08 50.4663 114.08C51.5996 114.08 52.6129 114.32 53.5063 114.8C54.3996 115.267 55.0996 115.913 55.6063 116.74C56.1129 117.567 56.3663 118.527 56.3663 119.62C56.3663 120.687 56.1129 121.64 55.6063 122.48C55.0996 123.307 54.3996 123.96 53.5063 124.44C52.6129 124.92 51.5996 125.16 50.4663 125.16ZM50.4663 122.6C50.9863 122.6 51.4529 122.48 51.8663 122.24C52.2796 122 52.6063 121.66 52.8463 121.22C53.0863 120.767 53.2063 120.233 53.2063 119.62C53.2063 118.993 53.0863 118.46 52.8463 118.02C52.6063 117.58 52.2796 117.24 51.8663 117C51.4529 116.76 50.9863 116.64 50.4663 116.64C49.9463 116.64 49.4796 116.76 49.0663 117C48.6529 117.24 48.3196 117.58 48.0663 118.02C47.8263 118.46 47.7063 118.993 47.7063 119.62C47.7063 120.233 47.8263 120.767 48.0663 121.22C48.3196 121.66 48.6529 122 49.0663 122.24C49.4796 122.48 49.9463 122.6 50.4663 122.6ZM58.4517 125V114.24H61.4317V117.28L61.0117 116.4C61.3317 115.64 61.8451 115.067 62.5517 114.68C63.2584 114.28 64.1184 114.08 65.1317 114.08V116.96C64.9984 116.947 64.8784 116.94 64.7717 116.94C64.6651 116.927 64.5517 116.92 64.4317 116.92C63.5784 116.92 62.8851 117.167 62.3517 117.66C61.8317 118.14 61.5717 118.893 61.5717 119.92V125H58.4517ZM72.8838 125V122.9L72.6838 122.44V118.68C72.6838 118.013 72.4771 117.493 72.0638 117.12C71.6638 116.747 71.0438 116.56 70.2038 116.56C69.6304 116.56 69.0638 116.653 68.5038 116.84C67.9571 117.013 67.4904 117.253 67.1038 117.56L65.9838 115.38C66.5704 114.967 67.2771 114.647 68.1038 114.42C68.9304 114.193 69.7704 114.08 70.6238 114.08C72.2638 114.08 73.5371 114.467 74.4438 115.24C75.3504 116.013 75.8038 117.22 75.8038 118.86V125H72.8838ZM69.6038 125.16C68.7638 125.16 68.0438 125.02 67.4438 124.74C66.8438 124.447 66.3838 124.053 66.0638 123.56C65.7438 123.067 65.5838 122.513 65.5838 121.9C65.5838 121.26 65.7371 120.7 66.0438 120.22C66.3638 119.74 66.8638 119.367 67.5438 119.1C68.2238 118.82 69.1104 118.68 70.2038 118.68H73.0638V120.5H70.5438C69.8104 120.5 69.3038 120.62 69.0238 120.86C68.7571 121.1 68.6238 121.4 68.6238 121.76C68.6238 122.16 68.7771 122.48 69.0838 122.72C69.4038 122.947 69.8371 123.06 70.3838 123.06C70.9038 123.06 71.3704 122.94 71.7838 122.7C72.1971 122.447 72.4971 122.08 72.6838 121.6L73.1638 123.04C72.9371 123.733 72.5238 124.26 71.9238 124.62C71.3238 124.98 70.5504 125.16 69.6038 125.16ZM82.2475 125.16C81.3275 125.16 80.4408 125.053 79.5875 124.84C78.7475 124.613 78.0808 124.333 77.5875 124L78.6275 121.76C79.1208 122.067 79.7008 122.32 80.3675 122.52C81.0475 122.707 81.7142 122.8 82.3675 122.8C83.0875 122.8 83.5942 122.713 83.8875 122.54C84.1942 122.367 84.3475 122.127 84.3475 121.82C84.3475 121.567 84.2275 121.38 83.9875 121.26C83.7608 121.127 83.4542 121.027 83.0675 120.96C82.6808 120.893 82.2542 120.827 81.7875 120.76C81.3342 120.693 80.8742 120.607 80.4075 120.5C79.9408 120.38 79.5142 120.207 79.1275 119.98C78.7408 119.753 78.4275 119.447 78.1875 119.06C77.9608 118.673 77.8475 118.173 77.8475 117.56C77.8475 116.88 78.0408 116.28 78.4275 115.76C78.8275 115.24 79.4008 114.833 80.1475 114.54C80.8942 114.233 81.7875 114.08 82.8275 114.08C83.5608 114.08 84.3075 114.16 85.0675 114.32C85.8275 114.48 86.4608 114.713 86.9675 115.02L85.9275 117.24C85.4075 116.933 84.8808 116.727 84.3475 116.62C83.8275 116.5 83.3208 116.44 82.8275 116.44C82.1342 116.44 81.6275 116.533 81.3075 116.72C80.9875 116.907 80.8275 117.147 80.8275 117.44C80.8275 117.707 80.9408 117.907 81.1675 118.04C81.4075 118.173 81.7208 118.28 82.1075 118.36C82.4942 118.44 82.9142 118.513 83.3675 118.58C83.8342 118.633 84.3008 118.72 84.7675 118.84C85.2342 118.96 85.6542 119.133 86.0275 119.36C86.4142 119.573 86.7275 119.873 86.9675 120.26C87.2075 120.633 87.3275 121.127 87.3275 121.74C87.3275 122.407 87.1275 123 86.7275 123.52C86.3275 124.027 85.7475 124.427 84.9875 124.72C84.2408 125.013 83.3275 125.16 82.2475 125.16ZM101.277 125.16C100.37 125.16 99.5766 124.96 98.8966 124.56C98.2166 124.16 97.6832 123.553 97.2966 122.74C96.9232 121.913 96.7366 120.873 96.7366 119.62C96.7366 118.353 96.9166 117.313 97.2766 116.5C97.6366 115.687 98.1566 115.08 98.8366 114.68C99.5166 114.28 100.33 114.08 101.277 114.08C102.29 114.08 103.197 114.313 103.997 114.78C104.81 115.233 105.45 115.873 105.917 116.7C106.397 117.527 106.637 118.5 106.637 119.62C106.637 120.753 106.397 121.733 105.917 122.56C105.45 123.387 104.81 124.027 103.997 124.48C103.197 124.933 102.29 125.16 101.277 125.16ZM94.9166 128.88V114.24H97.8966V116.44L97.8366 119.64L98.0366 122.82V128.88H94.9166ZM100.737 122.6C101.257 122.6 101.717 122.48 102.117 122.24C102.53 122 102.857 121.66 103.097 121.22C103.35 120.767 103.477 120.233 103.477 119.62C103.477 118.993 103.35 118.46 103.097 118.02C102.857 117.58 102.53 117.24 102.117 117C101.717 116.76 101.257 116.64 100.737 116.64C100.217 116.64 99.7499 116.76 99.3366 117C98.9232 117.24 98.5966 117.58 98.3566 118.02C98.1166 118.46 97.9966 118.993 97.9966 119.62C97.9966 120.233 98.1166 120.767 98.3566 121.22C98.5966 121.66 98.9232 122 99.3366 122.24C99.7499 122.48 100.217 122.6 100.737 122.6ZM108.725 125V114.24H111.705V117.28L111.285 116.4C111.605 115.64 112.118 115.067 112.825 114.68C113.532 114.28 114.392 114.08 115.405 114.08V116.96C115.272 116.947 115.152 116.94 115.045 116.94C114.938 116.927 114.825 116.92 114.705 116.92C113.852 116.92 113.158 117.167 112.625 117.66C112.105 118.14 111.845 118.893 111.845 119.92V125H108.725ZM122.302 125.16C121.156 125.16 120.136 124.92 119.242 124.44C118.362 123.96 117.662 123.307 117.142 122.48C116.636 121.64 116.382 120.687 116.382 119.62C116.382 118.54 116.636 117.587 117.142 116.76C117.662 115.92 118.362 115.267 119.242 114.8C120.136 114.32 121.156 114.08 122.302 114.08C123.436 114.08 124.449 114.32 125.342 114.8C126.236 115.267 126.936 115.913 127.442 116.74C127.949 117.567 128.202 118.527 128.202 119.62C128.202 120.687 127.949 121.64 127.442 122.48C126.936 123.307 126.236 123.96 125.342 124.44C124.449 124.92 123.436 125.16 122.302 125.16ZM122.302 122.6C122.822 122.6 123.289 122.48 123.702 122.24C124.116 122 124.442 121.66 124.682 121.22C124.922 120.767 125.042 120.233 125.042 119.62C125.042 118.993 124.922 118.46 124.682 118.02C124.442 117.58 124.116 117.24 123.702 117C123.289 116.76 122.822 116.64 122.302 116.64C121.782 116.64 121.316 116.76 120.902 117C120.489 117.24 120.156 117.58 119.902 118.02C119.662 118.46 119.542 118.993 119.542 119.62C119.542 120.233 119.662 120.767 119.902 121.22C120.156 121.66 120.489 122 120.902 122.24C121.316 122.48 121.782 122.6 122.302 122.6ZM134.908 125.16C133.894 125.16 132.981 124.933 132.168 124.48C131.354 124.013 130.708 123.367 130.228 122.54C129.761 121.713 129.528 120.74 129.528 119.62C129.528 118.487 129.761 117.507 130.228 116.68C130.708 115.853 131.354 115.213 132.168 114.76C132.981 114.307 133.894 114.08 134.908 114.08C135.814 114.08 136.608 114.28 137.288 114.68C137.968 115.08 138.494 115.687 138.868 116.5C139.241 117.313 139.428 118.353 139.428 119.62C139.428 120.873 139.248 121.913 138.888 122.74C138.528 123.553 138.008 124.16 137.328 124.56C136.661 124.96 135.854 125.16 134.908 125.16ZM135.448 122.6C135.954 122.6 136.414 122.48 136.828 122.24C137.241 122 137.568 121.66 137.808 121.22C138.061 120.767 138.188 120.233 138.188 119.62C138.188 118.993 138.061 118.46 137.808 118.02C137.568 117.58 137.241 117.24 136.828 117C136.414 116.76 135.954 116.64 135.448 116.64C134.928 116.64 134.461 116.76 134.048 117C133.634 117.24 133.301 117.58 133.048 118.02C132.808 118.46 132.688 118.993 132.688 119.62C132.688 120.233 132.808 120.767 133.048 121.22C133.301 121.66 133.634 122 134.048 122.24C134.461 122.48 134.928 122.6 135.448 122.6ZM138.268 125V122.8L138.328 119.6L138.128 116.42V110.16H141.248V125H138.268ZM148.675 125.16C147.782 125.16 146.982 124.987 146.275 124.64C145.582 124.293 145.042 123.767 144.655 123.06C144.269 122.34 144.075 121.427 144.075 120.32V114.24H147.195V119.86C147.195 120.753 147.382 121.413 147.755 121.84C148.142 122.253 148.682 122.46 149.375 122.46C149.855 122.46 150.282 122.36 150.655 122.16C151.029 121.947 151.322 121.627 151.535 121.2C151.749 120.76 151.855 120.213 151.855 119.56V114.24H154.975V125H152.015V122.04L152.555 122.9C152.195 123.647 151.662 124.213 150.955 124.6C150.262 124.973 149.502 125.16 148.675 125.16ZM157.126 125V123.12L163.486 115.6L164.026 116.64H157.266V114.24H166.546V116.12L160.186 123.64L159.626 122.6H166.726V125H157.126ZM168.725 125V114.24H171.845V125H168.725ZM170.285 112.74C169.712 112.74 169.245 112.573 168.885 112.24C168.525 111.907 168.345 111.493 168.345 111C168.345 110.507 168.525 110.093 168.885 109.76C169.245 109.427 169.712 109.26 170.285 109.26C170.858 109.26 171.325 109.42 171.685 109.74C172.045 110.047 172.225 110.447 172.225 110.94C172.225 111.46 172.045 111.893 171.685 112.24C171.338 112.573 170.872 112.74 170.285 112.74ZM179.361 125.16C178.347 125.16 177.434 124.933 176.621 124.48C175.807 124.013 175.161 123.367 174.681 122.54C174.214 121.713 173.981 120.74 173.981 119.62C173.981 118.487 174.214 117.507 174.681 116.68C175.161 115.853 175.807 115.213 176.621 114.76C177.434 114.307 178.347 114.08 179.361 114.08C180.267 114.08 181.061 114.28 181.741 114.68C182.421 115.08 182.947 115.687 183.321 116.5C183.694 117.313 183.881 118.353 183.881 119.62C183.881 120.873 183.701 121.913 183.341 122.74C182.981 123.553 182.461 124.16 181.781 124.56C181.114 124.96 180.307 125.16 179.361 125.16ZM179.901 122.6C180.407 122.6 180.867 122.48 181.281 122.24C181.694 122 182.021 121.66 182.261 121.22C182.514 120.767 182.641 120.233 182.641 119.62C182.641 118.993 182.514 118.46 182.261 118.02C182.021 117.58 181.694 117.24 181.281 117C180.867 116.76 180.407 116.64 179.901 116.64C179.381 116.64 178.914 116.76 178.501 117C178.087 117.24 177.754 117.58 177.501 118.02C177.261 118.46 177.141 118.993 177.141 119.62C177.141 120.233 177.261 120.767 177.501 121.22C177.754 121.66 178.087 122 178.501 122.24C178.914 122.48 179.381 122.6 179.901 122.6ZM182.721 125V122.8L182.781 119.6L182.581 116.42V110.16H185.701V125H182.721ZM195.188 125V122.9L194.988 122.44V118.68C194.988 118.013 194.782 117.493 194.368 117.12C193.968 116.747 193.348 116.56 192.508 116.56C191.935 116.56 191.368 116.653 190.808 116.84C190.262 117.013 189.795 117.253 189.408 117.56L188.288 115.38C188.875 114.967 189.582 114.647 190.408 114.42C191.235 114.193 192.075 114.08 192.928 114.08C194.568 114.08 195.842 114.467 196.748 115.24C197.655 116.013 198.108 117.22 198.108 118.86V125H195.188ZM191.908 125.16C191.068 125.16 190.348 125.02 189.748 124.74C189.148 124.447 188.688 124.053 188.368 123.56C188.048 123.067 187.888 122.513 187.888 121.9C187.888 121.26 188.042 120.7 188.348 120.22C188.668 119.74 189.168 119.367 189.848 119.1C190.528 118.82 191.415 118.68 192.508 118.68H195.368V120.5H192.848C192.115 120.5 191.608 120.62 191.328 120.86C191.062 121.1 190.928 121.4 190.928 121.76C190.928 122.16 191.082 122.48 191.388 122.72C191.708 122.947 192.142 123.06 192.688 123.06C193.208 123.06 193.675 122.94 194.088 122.7C194.502 122.447 194.802 122.08 194.988 121.6L195.468 123.04C195.242 123.733 194.828 124.26 194.228 124.62C193.628 124.98 192.855 125.16 191.908 125.16ZM204.552 125.16C203.632 125.16 202.746 125.053 201.892 124.84C201.052 124.613 200.386 124.333 199.892 124L200.932 121.76C201.426 122.067 202.006 122.32 202.672 122.52C203.352 122.707 204.019 122.8 204.672 122.8C205.392 122.8 205.899 122.713 206.192 122.54C206.499 122.367 206.652 122.127 206.652 121.82C206.652 121.567 206.532 121.38 206.292 121.26C206.066 121.127 205.759 121.027 205.372 120.96C204.986 120.893 204.559 120.827 204.092 120.76C203.639 120.693 203.179 120.607 202.712 120.5C202.246 120.38 201.819 120.207 201.432 119.98C201.046 119.753 200.732 119.447 200.492 119.06C200.266 118.673 200.152 118.173 200.152 117.56C200.152 116.88 200.346 116.28 200.732 115.76C201.132 115.24 201.706 114.833 202.452 114.54C203.199 114.233 204.092 114.08 205.132 114.08C205.866 114.08 206.612 114.16 207.372 114.32C208.132 114.48 208.766 114.713 209.272 115.02L208.232 117.24C207.712 116.933 207.186 116.727 206.652 116.62C206.132 116.5 205.626 116.44 205.132 116.44C204.439 116.44 203.932 116.533 203.612 116.72C203.292 116.907 203.132 117.147 203.132 117.44C203.132 117.707 203.246 117.907 203.472 118.04C203.712 118.173 204.026 118.28 204.412 118.36C204.799 118.44 205.219 118.513 205.672 118.58C206.139 118.633 206.606 118.72 207.072 118.84C207.539 118.96 207.959 119.133 208.332 119.36C208.719 119.573 209.032 119.873 209.272 120.26C209.512 120.633 209.632 121.127 209.632 121.74C209.632 122.407 209.432 123 209.032 123.52C208.632 124.027 208.052 124.427 207.292 124.72C206.546 125.013 205.632 125.16 204.552 125.16ZM36.06 149.16C35.0467 149.16 34.1333 148.933 33.32 148.48C32.5067 148.013 31.86 147.367 31.38 146.54C30.9133 145.713 30.68 144.74 30.68 143.62C30.68 142.487 30.9133 141.507 31.38 140.68C31.86 139.853 32.5067 139.213 33.32 138.76C34.1333 138.307 35.0467 138.08 36.06 138.08C36.9667 138.08 37.76 138.28 38.44 138.68C39.12 139.08 39.6467 139.687 40.02 140.5C40.3933 141.313 40.58 142.353 40.58 143.62C40.58 144.873 40.4 145.913 40.04 146.74C39.68 147.553 39.16 148.16 38.48 148.56C37.8133 148.96 37.0067 149.16 36.06 149.16ZM36.6 146.6C37.1067 146.6 37.5667 146.48 37.98 146.24C38.3933 146 38.72 145.66 38.96 145.22C39.2133 144.767 39.34 144.233 39.34 143.62C39.34 142.993 39.2133 142.46 38.96 142.02C38.72 141.58 38.3933 141.24 37.98 141C37.5667 140.76 37.1067 140.64 36.6 140.64C36.08 140.64 35.6133 140.76 35.2 141C34.7867 141.24 34.4533 141.58 34.2 142.02C33.96 142.46 33.84 142.993 33.84 143.62C33.84 144.233 33.96 144.767 34.2 145.22C34.4533 145.66 34.7867 146 35.2 146.24C35.6133 146.48 36.08 146.6 36.6 146.6ZM39.42 149V146.8L39.48 143.6L39.28 140.42V134.16H42.4V149H39.42ZM50.6277 149.16C49.401 149.16 48.321 148.92 47.3877 148.44C46.4677 147.96 45.7543 147.307 45.2477 146.48C44.741 145.64 44.4877 144.687 44.4877 143.62C44.4877 142.54 44.7343 141.587 45.2277 140.76C45.7343 139.92 46.421 139.267 47.2877 138.8C48.1543 138.32 49.1343 138.08 50.2277 138.08C51.281 138.08 52.2277 138.307 53.0677 138.76C53.921 139.2 54.5943 139.84 55.0877 140.68C55.581 141.507 55.8277 142.5 55.8277 143.66C55.8277 143.78 55.821 143.92 55.8077 144.08C55.7943 144.227 55.781 144.367 55.7677 144.5H47.0277V142.68H54.1277L52.9277 143.22C52.9277 142.66 52.8143 142.173 52.5877 141.76C52.361 141.347 52.0477 141.027 51.6477 140.8C51.2477 140.56 50.781 140.44 50.2477 140.44C49.7143 140.44 49.241 140.56 48.8277 140.8C48.4277 141.027 48.1143 141.353 47.8877 141.78C47.661 142.193 47.5477 142.687 47.5477 143.26V143.74C47.5477 144.327 47.6743 144.847 47.9277 145.3C48.1943 145.74 48.561 146.08 49.0277 146.32C49.5077 146.547 50.0677 146.66 50.7077 146.66C51.281 146.66 51.781 146.573 52.2077 146.4C52.6477 146.227 53.0477 145.967 53.4077 145.62L55.0677 147.42C54.5743 147.98 53.9543 148.413 53.2077 148.72C52.461 149.013 51.601 149.16 50.6277 149.16ZM68.7689 149.16C67.6089 149.16 66.5756 148.927 65.6689 148.46C64.7622 147.98 64.0489 147.32 63.5289 146.48C63.0222 145.64 62.7689 144.687 62.7689 143.62C62.7689 142.54 63.0222 141.587 63.5289 140.76C64.0489 139.92 64.7622 139.267 65.6689 138.8C66.5756 138.32 67.6089 138.08 68.7689 138.08C69.9022 138.08 70.8889 138.32 71.7289 138.8C72.5689 139.267 73.1889 139.94 73.5889 140.82L71.1689 142.12C70.8889 141.613 70.5356 141.24 70.1089 141C69.6956 140.76 69.2422 140.64 68.7489 140.64C68.2156 140.64 67.7356 140.76 67.3089 141C66.8822 141.24 66.5422 141.58 66.2889 142.02C66.0489 142.46 65.9289 142.993 65.9289 143.62C65.9289 144.247 66.0489 144.78 66.2889 145.22C66.5422 145.66 66.8822 146 67.3089 146.24C67.7356 146.48 68.2156 146.6 68.7489 146.6C69.2422 146.6 69.6956 146.487 70.1089 146.26C70.5356 146.02 70.8889 145.64 71.1689 145.12L73.5889 146.44C73.1889 147.307 72.5689 147.98 71.7289 148.46C70.8889 148.927 69.9022 149.16 68.7689 149.16ZM80.3686 149.16C79.2219 149.16 78.2019 148.92 77.3086 148.44C76.4286 147.96 75.7286 147.307 75.2086 146.48C74.7019 145.64 74.4486 144.687 74.4486 143.62C74.4486 142.54 74.7019 141.587 75.2086 140.76C75.7286 139.92 76.4286 139.267 77.3086 138.8C78.2019 138.32 79.2219 138.08 80.3686 138.08C81.5019 138.08 82.5153 138.32 83.4086 138.8C84.3019 139.267 85.0019 139.913 85.5086 140.74C86.0153 141.567 86.2686 142.527 86.2686 143.62C86.2686 144.687 86.0153 145.64 85.5086 146.48C85.0019 147.307 84.3019 147.96 83.4086 148.44C82.5153 148.92 81.5019 149.16 80.3686 149.16ZM80.3686 146.6C80.8886 146.6 81.3553 146.48 81.7686 146.24C82.1819 146 82.5086 145.66 82.7486 145.22C82.9886 144.767 83.1086 144.233 83.1086 143.62C83.1086 142.993 82.9886 142.46 82.7486 142.02C82.5086 141.58 82.1819 141.24 81.7686 141C81.3553 140.76 80.8886 140.64 80.3686 140.64C79.8486 140.64 79.3819 140.76 78.9686 141C78.5553 141.24 78.2219 141.58 77.9686 142.02C77.7286 142.46 77.6086 142.993 77.6086 143.62C77.6086 144.233 77.7286 144.767 77.9686 145.22C78.2219 145.66 78.5553 146 78.9686 146.24C79.3819 146.48 79.8486 146.6 80.3686 146.6ZM94.8941 138.08C95.7474 138.08 96.5074 138.253 97.1741 138.6C97.8541 138.933 98.3874 139.453 98.7741 140.16C99.1607 140.853 99.3541 141.747 99.3541 142.84V149H96.2341V143.32C96.2341 142.453 96.0407 141.813 95.6541 141.4C95.2807 140.987 94.7474 140.78 94.0541 140.78C93.5607 140.78 93.1141 140.887 92.7141 141.1C92.3274 141.3 92.0207 141.613 91.7941 142.04C91.5807 142.467 91.4741 143.013 91.4741 143.68V149H88.3541V138.24H91.3341V141.22L90.7741 140.32C91.1607 139.6 91.7141 139.047 92.4341 138.66C93.1541 138.273 93.9741 138.08 94.8941 138.08ZM106.582 149.16C105.316 149.16 104.329 148.84 103.622 148.2C102.916 147.547 102.562 146.58 102.562 145.3V135.86H105.682V145.26C105.682 145.713 105.802 146.067 106.042 146.32C106.282 146.56 106.609 146.68 107.022 146.68C107.516 146.68 107.936 146.547 108.282 146.28L109.122 148.48C108.802 148.707 108.416 148.88 107.962 149C107.522 149.107 107.062 149.16 106.582 149.16ZM100.902 140.88V138.48H108.362V140.88H100.902ZM115.882 149.16C114.655 149.16 113.575 148.92 112.642 148.44C111.722 147.96 111.008 147.307 110.502 146.48C109.995 145.64 109.742 144.687 109.742 143.62C109.742 142.54 109.988 141.587 110.482 140.76C110.988 139.92 111.675 139.267 112.542 138.8C113.408 138.32 114.388 138.08 115.482 138.08C116.535 138.08 117.482 138.307 118.322 138.76C119.175 139.2 119.848 139.84 120.342 140.68C120.835 141.507 121.082 142.5 121.082 143.66C121.082 143.78 121.075 143.92 121.062 144.08C121.048 144.227 121.035 144.367 121.022 144.5H112.282V142.68H119.382L118.182 143.22C118.182 142.66 118.068 142.173 117.842 141.76C117.615 141.347 117.302 141.027 116.902 140.8C116.502 140.56 116.035 140.44 115.502 140.44C114.968 140.44 114.495 140.56 114.082 140.8C113.682 141.027 113.368 141.353 113.142 141.78C112.915 142.193 112.802 142.687 112.802 143.26V143.74C112.802 144.327 112.928 144.847 113.182 145.3C113.448 145.74 113.815 146.08 114.282 146.32C114.762 146.547 115.322 146.66 115.962 146.66C116.535 146.66 117.035 146.573 117.462 146.4C117.902 146.227 118.302 145.967 118.662 145.62L120.322 147.42C119.828 147.98 119.208 148.413 118.462 148.72C117.715 149.013 116.855 149.16 115.882 149.16ZM127.699 149.16C126.805 149.16 126.005 148.987 125.299 148.64C124.605 148.293 124.065 147.767 123.679 147.06C123.292 146.34 123.099 145.427 123.099 144.32V138.24H126.219V143.86C126.219 144.753 126.405 145.413 126.779 145.84C127.165 146.253 127.705 146.46 128.399 146.46C128.879 146.46 129.305 146.36 129.679 146.16C130.052 145.947 130.345 145.627 130.559 145.2C130.772 144.76 130.879 144.213 130.879 143.56V138.24H133.999V149H131.039V146.04L131.579 146.9C131.219 147.647 130.685 148.213 129.979 148.6C129.285 148.973 128.525 149.16 127.699 149.16ZM126.719 136.86L129.419 133.98H132.779L129.159 136.86H126.719ZM141.509 149.16C140.496 149.16 139.583 148.933 138.769 148.48C137.956 148.013 137.309 147.367 136.829 146.54C136.363 145.713 136.129 144.74 136.129 143.62C136.129 142.487 136.363 141.507 136.829 140.68C137.309 139.853 137.956 139.213 138.769 138.76C139.583 138.307 140.496 138.08 141.509 138.08C142.416 138.08 143.209 138.28 143.889 138.68C144.569 139.08 145.096 139.687 145.469 140.5C145.843 141.313 146.029 142.353 146.029 143.62C146.029 144.873 145.849 145.913 145.489 146.74C145.129 147.553 144.609 148.16 143.929 148.56C143.263 148.96 142.456 149.16 141.509 149.16ZM142.049 146.6C142.556 146.6 143.016 146.48 143.429 146.24C143.843 146 144.169 145.66 144.409 145.22C144.663 144.767 144.789 144.233 144.789 143.62C144.789 142.993 144.663 142.46 144.409 142.02C144.169 141.58 143.843 141.24 143.429 141C143.016 140.76 142.556 140.64 142.049 140.64C141.529 140.64 141.063 140.76 140.649 141C140.236 141.24 139.903 141.58 139.649 142.02C139.409 142.46 139.289 142.993 139.289 143.62C139.289 144.233 139.409 144.767 139.649 145.22C139.903 145.66 140.236 146 140.649 146.24C141.063 146.48 141.529 146.6 142.049 146.6ZM144.869 149V146.8L144.929 143.6L144.729 140.42V134.16H147.849V149H144.869ZM155.857 149.16C154.71 149.16 153.69 148.92 152.797 148.44C151.917 147.96 151.217 147.307 150.697 146.48C150.19 145.64 149.937 144.687 149.937 143.62C149.937 142.54 150.19 141.587 150.697 140.76C151.217 139.92 151.917 139.267 152.797 138.8C153.69 138.32 154.71 138.08 155.857 138.08C156.99 138.08 158.004 138.32 158.897 138.8C159.79 139.267 160.49 139.913 160.997 140.74C161.504 141.567 161.757 142.527 161.757 143.62C161.757 144.687 161.504 145.64 160.997 146.48C160.49 147.307 159.79 147.96 158.897 148.44C158.004 148.92 156.99 149.16 155.857 149.16ZM155.857 146.6C156.377 146.6 156.844 146.48 157.257 146.24C157.67 146 157.997 145.66 158.237 145.22C158.477 144.767 158.597 144.233 158.597 143.62C158.597 142.993 158.477 142.46 158.237 142.02C157.997 141.58 157.67 141.24 157.257 141C156.844 140.76 156.377 140.64 155.857 140.64C155.337 140.64 154.87 140.76 154.457 141C154.044 141.24 153.71 141.58 153.457 142.02C153.217 142.46 153.097 142.993 153.097 143.62C153.097 144.233 153.217 144.767 153.457 145.22C153.71 145.66 154.044 146 154.457 146.24C154.87 146.48 155.337 146.6 155.857 146.6Z" fill="white"/>
<rect x="0.5" y="52.5" width="240" height="131" rx="9.5" stroke="white" stroke-opacity="0.2" style="mix-blend-mode:overlay"/>
</g>
<defs>
<filter id="filter0_b_44_214" x="236" y="-40" width="296" height="218" filterUnits="userSpaceOnUse" color-interpolation-filters="sRGB">
<feFlood flood-opacity="0" result="BackgroundImageFix"/>
<feGaussianBlur in="BackgroundImageFix" stdDeviation="21.5"/>
<feComposite in2="SourceAlpha" operator="in" result="effect1_backgroundBlur_44_214"/>
<feBlend mode="normal" in="SourceGraphic" in2="effect1_backgroundBlur_44_214" result="shape"/>
</filter>
<filter id="filter1_b_44_214" x="143" y="155" width="281" height="218" filterUnits="userSpaceOnUse" color-interpolation-filters="sRGB">
<feFlood flood-opacity="0" result="BackgroundImageFix"/>
<feGaussianBlur in="BackgroundImageFix" stdDeviation="21.5"/>
<feComposite in2="SourceAlpha" operator="in" result="effect1_backgroundBlur_44_214"/>
<feBlend mode="normal" in="SourceGraphic" in2="effect1_backgroundBlur_44_214" result="shape"/>
</filter>
<filter id="filter2_b_44_214" x="354" y="109" width="270" height="218" filterUnits="userSpaceOnUse" color-interpolation-filters="sRGB">
<feFlood flood-opacity="0" result="BackgroundImageFix"/>
<feGaussianBlur in="BackgroundImageFix" stdDeviation="21.5"/>
<feComposite in2="SourceAlpha" operator="in" result="effect1_backgroundBlur_44_214"/>
<feBlend mode="normal" in="SourceGraphic" in2="effect1_backgroundBlur_44_214" result="shape"/>
</filter>
<filter id="filter3_b_44_214" x="-43" y="9" width="327" height="218" filterUnits="userSpaceOnUse" color-interpolation-filters="sRGB">
<feFlood flood-opacity="0" result="BackgroundImageFix"/>
<feGaussianBlur in="BackgroundImageFix" stdDeviation="21.5"/>
<feComposite in2="SourceAlpha" operator="in" result="effect1_backgroundBlur_44_214"/>
<feBlend mode="normal" in="SourceGraphic" in2="effect1_backgroundBlur_44_214" result="shape"/>
</filter>
</defs>
</svg>
