<svg width="25" height="25" viewBox="0 0 25 25" fill="none" xmlns="http://www.w3.org/2000/svg">
<path d="M12.4968 6.33291C9.09158 6.33291 6.34489 9.0802 6.34489 12.4862C6.34489 15.8922 9.09158 18.6395 12.4968 18.6395C15.9021 18.6395 18.6487 15.8922 18.6487 12.4862C18.6487 9.0802 15.9021 6.33291 12.4968 6.33291ZM12.4968 16.4867C10.2963 16.4867 8.49726 14.6926 8.49726 12.4862C8.49726 10.2798 10.2909 8.48576 12.4968 8.48576C14.7027 8.48576 16.4964 10.2798 16.4964 12.4862C16.4964 14.6926 14.6974 16.4867 12.4968 16.4867ZM20.3353 6.08121C20.3353 6.87916 19.6928 7.51644 18.9004 7.51644C18.1026 7.51644 17.4655 6.8738 17.4655 6.08121C17.4655 5.28862 18.108 4.64597 18.9004 4.64597C19.6928 4.64597 20.3353 5.28862 20.3353 6.08121ZM24.4098 7.53786C24.3188 5.61529 23.8798 3.91229 22.4716 2.50919C21.0688 1.10609 19.3662 0.666949 17.4441 0.570553C15.463 0.45809 9.52526 0.45809 7.54422 0.570553C5.62744 0.661594 3.92482 1.10073 2.51667 2.50383C1.10853 3.90694 0.674843 5.60994 0.578469 7.53251C0.466031 9.51399 0.466031 15.4531 0.578469 17.4345C0.669489 19.3571 1.10853 21.0601 2.51667 22.4632C3.92482 23.8663 5.62208 24.3055 7.54422 24.4019C9.52526 24.5143 15.463 24.5143 17.4441 24.4019C19.3662 24.3108 21.0688 23.8717 22.4716 22.4632C23.8744 21.0601 24.3134 19.3571 24.4098 17.4345C24.5223 15.4531 24.5223 9.51934 24.4098 7.53786ZM21.8505 19.5606C21.4329 20.6103 20.6244 21.4189 19.5697 21.842C17.9902 22.4686 14.2423 22.324 12.4968 22.324C10.7514 22.324 6.9981 22.4632 5.42398 21.842C4.37456 21.4243 3.56609 20.6156 3.14311 19.5606C2.51667 17.9808 2.66124 14.232 2.66124 12.4862C2.66124 10.7404 2.52203 6.98626 3.14311 5.41179C3.56073 4.36214 4.36921 3.55348 5.42398 3.13041C7.00345 2.50383 10.7514 2.64843 12.4968 2.64843C14.2423 2.64843 17.9955 2.50919 19.5697 3.13041C20.6191 3.54813 21.4275 4.35679 21.8505 5.41179C22.477 6.99162 22.3324 10.7404 22.3324 12.4862C22.3324 14.232 22.477 17.9862 21.8505 19.5606Z" fill="white"/>
</svg>
