<svg width="25" height="25" viewBox="0 0 25 25" fill="none" xmlns="http://www.w3.org/2000/svg">
<path d="M12.4968 6.33279C9.09158 6.33279 6.34489 9.08008 6.34489 12.4861C6.34489 15.8921 9.09158 18.6394 12.4968 18.6394C15.9021 18.6394 18.6487 15.8921 18.6487 12.4861C18.6487 9.08008 15.9021 6.33279 12.4968 6.33279ZM12.4968 16.4865C10.2963 16.4865 8.49726 14.6925 8.49726 12.4861C8.49726 10.2797 10.2909 8.48564 12.4968 8.48564C14.7027 8.48564 16.4964 10.2797 16.4964 12.4861C16.4964 14.6925 14.6974 16.4865 12.4968 16.4865ZM20.3353 6.08109C20.3353 6.87903 19.6928 7.51632 18.9004 7.51632C18.1026 7.51632 17.4655 6.87368 17.4655 6.08109C17.4655 5.28849 18.108 4.64585 18.9004 4.64585C19.6928 4.64585 20.3353 5.28849 20.3353 6.08109ZM24.4098 7.53774C24.3188 5.61517 23.8798 3.91217 22.4716 2.50907C21.0688 1.10597 19.3662 0.666827 17.4441 0.570431C15.463 0.457968 9.52526 0.457968 7.54422 0.570431C5.62744 0.661472 3.92482 1.10061 2.51667 2.50371C1.10853 3.90681 0.674843 5.60981 0.578469 7.53239C0.466031 9.51386 0.466031 15.4529 0.578469 17.4344C0.669489 19.357 1.10853 21.06 2.51667 22.4631C3.92482 23.8662 5.62208 24.3053 7.54422 24.4017C9.52526 24.5142 15.463 24.5142 17.4441 24.4017C19.3662 24.3107 21.0688 23.8716 22.4716 22.4631C23.8744 21.06 24.3134 19.357 24.4098 17.4344C24.5223 15.4529 24.5223 9.51922 24.4098 7.53774ZM21.8505 19.5605C21.4329 20.6101 20.6244 21.4188 19.5697 21.8419C17.9902 22.4685 14.2423 22.3239 12.4968 22.3239C10.7514 22.3239 6.9981 22.4631 5.42398 21.8419C4.37456 21.4242 3.56609 20.6155 3.14311 19.5605C2.51667 17.9807 2.66124 14.2319 2.66124 12.4861C2.66124 10.7402 2.52203 6.98614 3.14311 5.41167C3.56073 4.36202 4.36921 3.55336 5.42398 3.13029C7.00345 2.50371 10.7514 2.64831 12.4968 2.64831C14.2423 2.64831 17.9955 2.50907 19.5697 3.13029C20.6191 3.54801 21.4275 4.35666 21.8505 5.41167C22.477 6.9915 22.3324 10.7402 22.3324 12.4861C22.3324 14.2319 22.477 17.986 21.8505 19.5605Z" fill="#04BFBF"/>
</svg>
